<?xml version="1.0" encoding="UTF-8"?>
<svg id="Layer_2" data-name="Layer 2" xmlns="http://www.w3.org/2000/svg" viewBox="0 0 496 496">
  <defs>
    <style>
      .cls-1 {
        fill: #323233;
      }
    </style>
  </defs>
  <g id="Capa_1" data-name="Capa 1">
    <path class="cls-1" d="M440,452.97v-58.63l1.17-1.82c11.17-17.43,21.83-30.44,33.54-40.93,13.54-12.11,21.3-29.46,21.3-47.59,0-15.75-5.69-30.56-16-42.24V32h-16V0h-112v32h-16v64h-32v32h-16v32h-16v-96h-16v-32h-24V0h-96v32h-24v32h-16v64H32v32h-16v101.76c-10.31,11.68-16,26.48-16,42.24,0,18.13,7.76,35.48,21.3,47.6,11.71,10.49,22.37,23.5,33.54,40.93l1.17,1.82v58.62c-31.56,10.04-49.88,19.02-51.57,19.87L0,475.05v20.95h496v-20.95l-4.43-2.21c-1.7-.86-20.02-9.84-51.57-19.88ZM336,429.88v-34.93c6.97-8.14,14.5-14.86,22.38-19.97,11.54-7.46,19.66-18.67,23.34-31.45,1.43,1.79,2.94,3.53,4.56,5.18,12.09,12.32,25.88,27.16,36.56,43.82l1.15,1.8v53.8c-23.93-6.83-53.57-13.63-88-18.27ZM168.11,288.02c2.86,0,5.74.3,8.61.89,15.18,3.17,27.41,15.54,30.45,30.78,3.16,15.87-2.93,31.5-15.88,40.78-4.61,3.3-9.95,7.35-15.29,12v-60.46h-16v19.05l-20.43-10.21-7.16,14.31,27.59,13.79v23.18c-4.43-3.96-8.98-7.54-13.7-10.59-11.46-7.4-18.3-19.94-18.3-33.54,0-12.11,5.39-23.43,14.8-31.06,7.18-5.83,16.08-8.92,25.3-8.92ZM291.98,285.19c-5.36,4.53-9.96,9.95-13.32,16.14l-2.24-4.49-20.43,10.21v-19.05h-16v78.81c-6.41-8.07-12.93-15.23-18.85-21.48,2.93-9.03,3.69-18.84,1.71-28.76-2.46-12.38-9.34-23.3-18.73-31.28,7.5-17.14,24.45-28.97,43.05-29.28,19.53-.32,37.21,11.49,44.8,29.18ZM336,348.95l27.57-13.79-7.16-14.31-20.41,10.21v-19.05h-16v60.47c-5.34-4.65-10.67-8.7-15.29-12-12.96-9.28-19.04-24.91-15.88-40.78,3.03-15.24,15.27-27.61,30.45-30.77,2.87-.6,5.76-.9,8.61-.9,9.23,0,18.14,3.09,25.31,8.92,9.4,7.63,14.79,18.95,14.79,31.05,0,13.6-6.84,26.14-18.3,33.55-4.71,3.05-9.27,6.62-13.7,10.59v-23.19ZM256,324.95l17.2-8.6c-.02.07-.05.14-.06.22-1.95,9.76-1.23,19.42,1.57,28.33-6.41,6.29-12.62,13.31-18.71,21.34v-41.29ZM176,394.97c7.54-8.79,16.66-15.8,24.61-21.5,5.11-3.66,9.37-8.08,12.87-12.95,8.62,9.33,17.67,20,25.37,32.02l1.15,1.8v29.73c-22.65.27-44.04,1.68-64,3.87v-32.98ZM256,394.34l1.17-1.82c8.22-12.82,16.48-23.49,25.03-32.48,3.57,5.07,7.92,9.66,13.2,13.44,7.95,5.7,17.07,12.7,24.61,21.5v32.97c-19.96-2.18-41.35-3.59-64-3.87v-29.74h0ZM464.03,339.67c-8.27,7.41-16.21,16.18-24.03,26.5v-41.23l27.57-13.79-7.16-14.31-20.41,10.22v-19.05h-16v78.79c-8.62-10.88-17.86-20.67-26.29-29.27-9.3-9.48-14.16-22.01-13.67-35.3.9-25.07,22.05-45.81,47.15-46.21.27,0,.54,0,.81,0,12.68,0,24.6,4.87,33.66,13.78,9.25,9.09,14.34,21.25,14.34,34.22s-5.82,26.59-15.97,35.67ZM368,16h80v16h-80v-16ZM352,48h112v200.64c-9.93-5.75-21.24-8.78-33.08-8.63-5.13.09-10.11.87-14.92,2.16v-82.17h-32v-32h-16v-32h-16v-48ZM320,112h32v16h-32v-16ZM304,144h64v16h-64v-16ZM400,176v72h1.45c-15.95,8.87-27.91,24.36-31.94,42.52-1.92-2.12-3.95-4.16-6.21-6-13.16-10.7-30.39-14.78-47.29-11.26-3.56.74-6.95,1.96-10.23,3.38-6.91-14.59-19.08-25.77-33.77-31.75v-68.89h127.99ZM152,16h64v16h-64v-16ZM128,48h112v16h-112v-16ZM112,80h144v160.61c-2.98-.38-6-.66-9.08-.6-24.06.4-46.1,15.1-56.54,36.7-3.34-1.45-6.77-2.7-10.38-3.45-6.71-1.4-13.46-1.55-20-.61v-112.65h-16v-32h-32v-48ZM48,144h80v16H48v-16ZM144,176v101.44c-3.99,1.89-7.79,4.23-11.3,7.08-2.26,1.84-4.3,3.88-6.21,6-6.26-28.22-31.75-50.02-61.41-50.51-11.95-.2-23.2,2.84-33.08,8.59v-72.6h112ZM31.97,339.67c-10.14-9.08-15.97-22.09-15.97-35.67s5.1-25.13,14.34-34.22c9.05-8.91,20.98-13.78,33.66-13.78.27,0,.54,0,.82,0,25.1.42,46.25,21.15,47.15,46.21.48,13.29-4.38,25.82-13.67,35.3-8.43,8.59-17.66,18.39-26.29,29.27v-78.79h-16.02v19.05l-20.43-10.21-7.16,14.31,27.59,13.79v41.23c-7.82-10.33-15.76-19.09-24.03-26.5ZM72,394.34l1.14-1.79c10.68-16.66,24.48-31.5,36.57-43.82,1.62-1.66,3.14-3.39,4.56-5.18,3.69,12.78,11.8,23.98,23.34,31.45,7.89,5.11,15.42,11.83,22.38,19.97v34.93c-34.43,4.63-64.07,11.43-88,18.27v-53.81ZM28.16,480c33.15-13.19,113.58-40,219.84-40s186.69,26.81,219.84,40H28.16Z"/>
  </g>
</svg>