<?xml version="1.0" encoding="UTF-8"?>
<svg id="Layer_2" data-name="Layer 2" xmlns="http://www.w3.org/2000/svg" viewBox="0 0 509.67 512">
  <defs>
    <style>
      .cls-1 {
        fill: #323233;
      }
    </style>
  </defs>
  <g id="Capa_1" data-name="Capa 1">
    <g>
      <path class="cls-1" d="M312.76,98.68c19.68-15.9,24.14-32.9,24.41-44.35.66-27.88-21.35-48.28-23.86-50.51-6.22-5.54-15.76-4.98-21.3,1.25-5.54,6.23-4.98,15.76,1.25,21.3.14.13,14.09,13.17,13.75,27.25-.18,7.5-4.5,14.57-13.21,21.6-19.68,15.9-24.14,32.89-24.41,44.35-.66,27.88,21.35,48.28,23.86,50.51,2.88,2.56,6.48,3.82,10.06,3.82,4.16,0,8.29-1.7,11.27-5.04,5.54-6.23,5.01-15.73-1.22-21.27-3.96-3.6-14.16-15.54-13.81-27.42.22-7.46,4.54-14.49,13.21-21.49Z"/>
      <path class="cls-1" d="M217.05,98.68c19.68-15.9,24.14-32.9,24.41-44.35.66-27.88-21.35-48.28-23.86-50.51-6.22-5.54-15.76-4.98-21.29,1.25-5.54,6.23-4.98,15.76,1.25,21.3.14.13,14.09,13.17,13.75,27.25-.18,7.5-4.5,14.57-13.21,21.6-19.68,15.9-24.14,32.89-24.41,44.35-.66,27.88,21.35,48.28,23.86,50.51,2.88,2.56,6.48,3.82,10.06,3.82,4.16,0,8.29-1.7,11.27-5.04,5.54-6.23,5.01-15.73-1.22-21.27-3.96-3.6-14.16-15.54-13.81-27.42.22-7.46,4.54-14.49,13.2-21.49Z"/>
      <path class="cls-1" d="M432.99,246.15h-17.85v-11.06c0-8.33-6.75-15.08-15.08-15.08H15.08c-8.33,0-15.08,6.75-15.08,15.08v79.61c0,70.34,38.93,132.2,97.39,167.14H15.09C6.76,481.83,0,488.58,0,496.92s6.75,15.08,15.08,15.08h384.97c8.33,0,15.08-6.75,15.08-15.08s-6.75-15.08-15.08-15.08h-82.3c33.24-19.87,60.17-48.44,77.21-82.33h38.03c42.28,0,76.68-34.4,76.68-76.68,0-42.28-34.4-76.68-76.68-76.68ZM384.98,314.69c0,92.16-79.58,167.14-177.4,167.14S30.17,406.85,30.17,314.69v-64.52h354.81v64.52h0ZM432.99,369.34h-25.96c5.27-17.36,8.1-35.69,8.1-54.64v-38.38h17.85c25.65,0,46.51,20.86,46.51,46.51s-20.87,46.51-46.51,46.51Z"/>
      <path class="cls-1" d="M121.35,98.68c19.68-15.9,24.14-32.89,24.41-44.35.66-27.88-21.35-48.28-23.86-50.51-6.22-5.54-15.76-4.98-21.29,1.25-5.54,6.22-4.98,15.76,1.25,21.3.14.13,14.09,13.17,13.75,27.25-.18,7.5-4.5,14.57-13.21,21.6-19.68,15.9-24.14,32.9-24.41,44.35-.66,27.88,21.35,48.28,23.86,50.51,2.87,2.56,6.45,3.81,10.02,3.81,4.16,0,8.3-1.71,11.28-5.06,5.54-6.23,4.98-15.76-1.25-21.29-.14-.13-14.09-13.17-13.75-27.25.18-7.5,4.5-14.57,13.21-21.6Z"/>
    </g>
  </g>
</svg>