<?xml version="1.0" encoding="UTF-8"?>
<svg id="Layer_2" data-name="Layer 2" xmlns="http://www.w3.org/2000/svg" viewBox="0 0 441 512">
  <defs>
    <style>
      .cls-1 {
        fill: #323233;
      }
    </style>
  </defs>
  <g id="Capa_1" data-name="Capa 1">
    <g>
      <path class="cls-1" d="M256.39,66.15c.74.17,1.48.25,2.2.25,4.57,0,8.69-3.16,9.73-7.81l9.66-42.93c1.21-5.39-2.17-10.74-7.55-11.95-5.38-1.22-10.73,2.17-11.94,7.56l-9.66,42.93c-1.21,5.39,2.17,10.74,7.55,11.95h0Z"/>
      <path class="cls-1" d="M209.32,52.53c1.9,3.01,5.14,4.66,8.45,4.66,1.82,0,3.67-.5,5.33-1.55,4.66-2.95,6.05-9.13,3.11-13.8l-23.47-37.18c-2.95-4.67-9.12-6.06-13.78-3.11-4.66,2.95-6.05,9.13-3.11,13.8l23.47,37.18Z"/>
      <path class="cls-1" d="M299.42,75.6c1.83,0,3.67-.5,5.33-1.55l37.16-23.53c4.66-2.95,6.05-9.13,3.1-13.8-2.95-4.67-9.12-6.06-13.78-3.11l-37.16,23.53c-4.66,2.95-6.05,9.13-3.1,13.8,1.9,3.01,5.14,4.66,8.45,4.66h0Z"/>
      <path class="cls-1" d="M423.37,433.94l-63.25-27.27-20.28-75.8c26.17-9.79,48.39-30.02,60.59-55.64,11.93-25.05,12.73-52.41,2.33-77.32-.08-.18-.69-1.62-.93-2.15l-43.48-97.38c-2-4.49-6.96-6.85-11.7-5.58l-95.56,25.64,1.47-14.17c.5-4.86-2.58-9.37-7.28-10.67l-31.28-8.63c-5.32-1.47-10.82,1.66-12.28,6.98s1.66,10.83,6.98,12.3l23.13,6.38-4.27,41.25c-28.36-13.02-65.6-11.63-91.28,4.87-20.8,13.37-53.87,13.59-76.22,1.43l37.33-83.57,25.22,6.77c5.32,1.43,10.8-1.73,12.23-7.07,1.43-5.33-1.73-10.82-7.06-12.25l-33.44-8.98c-4.74-1.27-9.7,1.09-11.7,5.58l-43.51,97.41c-11.35,25.46-10.85,53.67,1.41,79.43,12.2,25.63,34.43,45.88,60.61,55.67l-20.28,75.8-63.25,27.25C6.36,399.08-.7,410.32.06,422.19c.76,11.85,9.21,21.51,22.06,25.2.06.02.12.03.17.05l88.42,23.7c.05.01.1.03.16.04,2.94.74,5.83,1.1,8.63,1.1,9.57,0,17.99-4.2,23.08-11.84,6.59-9.9,6.09-23.17-1.25-33.02l-41.16-55.27,20.27-75.79c5.85.98,11.79,1.47,17.73,1.47,22.04,0,44.16-6.67,62.56-19.34,1.62-1.11,3.18-2.27,4.71-3.45,7.39,18.62,20.77,34.52,38.79,45.76,17.56,10.95,38.31,16.69,58.81,16.69,5.88,0,11.75-.48,17.51-1.43l20.28,75.8-41.16,55.27c-7.34,9.86-7.85,23.12-1.27,33.02,5.09,7.66,13.53,11.87,23.11,11.87,2.79,0,5.67-.36,8.6-1.09.06-.01.11-.03.17-.04l88.42-23.73c.06-.02.11-.03.17-.05,12.87-3.7,21.33-13.36,22.08-25.23.75-11.86-6.32-23.09-17.57-27.93h0ZM248.91,139.74l94.71-25.41,37.31,83.56c-22.35,12.16-55.41,11.93-76.23-1.45-16.36-10.53-38.55-15.16-60.31-13.01l4.52-43.7ZM125.96,449.35c-2.46,3.7-7.4,3.14-10.17,2.45l-88.24-23.65c-2.74-.8-7.27-2.79-7.56-7.23-.18-2.78,1.48-6.58,5.54-8.33l60.45-26.04,39.34,52.82c2.64,3.55,2.18,7.66.64,9.98h0ZM189.42,262.01c-21.07,14.51-49.25,19.45-73.57,12.9t0,0s0,0,0,0c0,0,0,0,0,0-24.32-6.51-46.26-24.9-57.26-48.02-7.67-16.12-9.53-33.4-5.56-49.83,13.33,6.73,28.86,10.14,44.34,10.14,17.81,0,35.54-4.5,49.73-13.62,21.45-13.78,55.92-13.6,78.28-.3l-3.63,35.05c-2.25,21.81-13.73,40.87-32.31,53.67h0ZM254.8,303.82c-16.9-10.54-28.63-26.14-33.45-44.29,11.34-13.96,18.34-30.76,20.24-49.13l.68-6.55c18.66-2.8,37.92.62,51.63,9.43,14.21,9.13,31.95,13.64,49.76,13.64,15.47,0,30.99-3.41,44.31-10.14,3.96,16.43,2.12,33.71-5.56,49.84-11,23.1-32.93,41.49-57.25,47.99h0s0,0,0,0c0,0,0,0,0,0-23.19,6.25-49.49,2.21-70.35-10.8ZM413.43,467.84l-88.23,23.68c-2.77.68-7.7,1.23-10.17-2.47-1.54-2.32-1.99-6.43.66-9.98l39.34-52.82,60.46,26.07c4.05,1.74,5.7,5.52,5.53,8.29-.28,4.45-4.83,6.44-7.58,7.24h0Z"/>
      <path class="cls-1" d="M167.2,92.98c5.52,0,9.99-4.48,9.99-10s-4.47-10-9.99-10h-.06c-5.52,0-9.96,4.48-9.96,10,0,5.52,4.5,10,10.02,10Z"/>
    </g>
  </g>
</svg>