<?xml version="1.0" encoding="UTF-8"?>
<svg id="Layer_2" data-name="Layer 2" xmlns="http://www.w3.org/2000/svg" viewBox="0 0 512 450">
  <defs>
    <style>
      .cls-1 {
        fill: #323233;
      }
    </style>
  </defs>
  <g id="Capa_1" data-name="Capa 1">
    <g>
      <path class="cls-1" d="M512,225c0-19.66-12.67-36.4-30.27-42.51-2.7-60.98-25.47-107.78-67.79-139.23C375.32,14.55,322.19,0,256,0s-119.32,14.55-157.94,43.26C55.75,74.7,32.98,121.5,30.27,182.49,12.67,188.6,0,205.34,0,225c0,11.52,4.35,22.03,11.49,30-7.14,7.97-11.49,18.48-11.49,30,0,19.78,12.83,36.6,30.6,42.62,6.43,68.54,64.7,122.38,135.4,122.38h180c70.7,0,128.97-53.83,135.4-122.38,17.77-6.02,30.6-22.85,30.6-42.62,0-11.52-4.35-22.03-11.49-30,7.14-7.97,11.49-18.48,11.49-30ZM256,30c86.03,0,187.94,26.52,195.53,150H60.47C68.06,56.52,169.97,30,256,30ZM45,210h422c8.27,0,15,6.73,15,15s-6.73,15-15,15H45c-8.27,0-15-6.73-15-15s6.73-15,15-15ZM346,420h-180c-53.31,0-97.54-39.18-104.91-90h13.91c10.03,0,13.2,3.41,19.51,10.21,7.76,8.35,18.38,19.79,41.49,19.79s33.62-11.56,41.18-19.99c5.97-6.66,8.96-10.01,18.82-10.01s12.86,3.34,18.82,10.01c7.56,8.44,17.9,19.99,41.18,19.99s33.62-11.56,41.17-19.99c5.97-6.66,8.96-10.01,18.83-10.01s12.86,3.34,18.83,10.01c7.56,8.44,17.9,19.99,41.17,19.99s33.62-11.56,41.17-19.99c5.97-6.66,8.96-10.01,18.83-10.01h14.91c-7.37,50.82-51.61,90-104.91,90ZM467,300h-31c-23.27,0-33.62,11.56-41.17,19.99-5.97,6.66-8.96,10.01-18.83,10.01s-12.86-3.34-18.83-10.01c-7.56-8.44-17.9-19.99-41.17-19.99s-33.62,11.56-41.17,19.99c-5.97,6.66-8.96,10.01-18.83,10.01s-12.86-3.34-18.82-10.01c-7.56-8.44-17.9-19.99-41.18-19.99s-33.62,11.56-41.18,19.99c-5.97,6.66-8.96,10.01-18.82,10.01s-13.2-3.41-19.51-10.21c-7.76-8.35-18.38-19.79-41.49-19.79h-30c-8.27,0-15-6.73-15-15s6.73-15,15-15h422c8.27,0,15,6.73,15,15s-6.73,15-15,15Z"/>
      <circle class="cls-1" cx="166" cy="135" r="15"/>
      <circle class="cls-1" cx="346" cy="135" r="15"/>
      <circle class="cls-1" cx="286" cy="105" r="15"/>
      <circle class="cls-1" cx="226" cy="75" r="15"/>
    </g>
  </g>
</svg>