<?xml version="1.0" encoding="UTF-8"?>
<svg id="Layer_2" data-name="Layer 2" xmlns="http://www.w3.org/2000/svg" viewBox="0 0 2854.06 3074.38">
  <defs>
    <style>
      .cls-1 {
        fill: #231f20;
      }

      .cls-2 {
        fill: none;
      }
    </style>
  </defs>
  <g id="Layer_1-2" data-name="Layer 1">
    <path class="cls-2" d="M2232.83,1380.76c0-442.83-358.52-801.92-801.12-802.85-443.09-.94-802.2,355.38-804.57,798.46-1.24,232.52,96.37,442.25,253.24,589.63,142.73,134.08,223.97,321.01,223.97,516.84v16c0,24.35,19.74,44.1,44.1,44.1h563.07c24.35,0,44.1-19.74,44.1-44.1v-15.99c0-196.2,81.9-383.04,224.72-517.56,155.45-146.41,252.5-354.13,252.5-584.52Z"/>
    <path class="cls-1" d="M1711.52,2597.25h-563.07c-54.27,0-98.41-44.15-98.41-98.42v-16c0-179.81-75.39-353.77-206.84-477.25-41.85-39.32-79.89-82.99-113.06-129.79-33.47-47.23-62.21-97.99-85.41-150.85-48.36-110.18-72.56-227.56-71.91-348.87.62-115.61,23.76-227.61,68.78-332.88,43.49-101.71,105.5-192.93,184.29-271.12,78.79-78.19,170.48-139.49,272.53-182.22,105.05-43.98,216.58-66.27,331.52-66.27.63,0,1.25,0,1.88,0,115.5.24,227.54,23.08,333.02,67.89,101.87,43.27,193.33,105.1,271.85,183.77,78.52,78.68,140.17,170.27,183.24,272.24,44.6,105.6,67.21,217.72,67.21,333.27s-24.42,236.53-72.58,345.68c-23.12,52.4-51.68,102.71-84.89,149.56-32.91,46.42-70.63,89.76-112.1,128.82-131.96,124.29-207.65,298.52-207.65,478.02v15.99c0,54.27-44.15,98.42-98.42,98.42ZM1158.67,2488.62h542.63v-5.77c0-52.27,5.45-104.71,16.19-155.88,10.61-50.54,26.47-100.24,47.13-147.71,20.61-47.35,46.15-92.83,75.92-135.18,29.99-42.67,64.5-82.48,102.56-118.33,151.81-142.99,235.42-336.53,235.42-544.98,0-411.87-335.07-747.66-746.92-748.53-.53,0-1.07,0-1.6,0-410.71,0-746.34,333.61-748.54,744.44-1.11,207.36,84.95,407.74,236.12,549.75,38.04,35.74,72.52,75.5,102.48,118.16,29.68,42.27,55.14,87.72,75.67,135.08,20.55,47.4,36.32,97.05,46.87,147.57,10.66,51.07,16.07,103.43,16.07,155.62v5.78Z"/>
    <rect class="cls-1" x="1084.7" y="2654.94" width="690.57" height="89.83" rx="44.91" ry="44.91"/>
    <path class="cls-1" d="M1730.35,2755.3h-600.74c-30.57,0-55.44-24.87-55.44-55.44s24.87-55.44,55.44-55.44h600.74c30.57,0,55.44,24.87,55.44,55.44s-24.87,55.44-55.44,55.44ZM1129.61,2665.47c-18.96,0-34.39,15.43-34.39,34.39s15.43,34.39,34.39,34.39h600.74c18.96,0,34.39-15.43,34.39-34.39s-15.43-34.39-34.39-34.39h-600.74Z"/>
    <rect class="cls-1" x="1130.28" y="2834.88" width="599.41" height="69.38" rx="34.69" ry="34.69"/>
    <path class="cls-1" d="M1694.99,2924.9h-530.03c-30.5,0-55.32-24.82-55.32-55.32s24.82-55.32,55.32-55.32h530.03c30.51,0,55.32,24.82,55.32,55.32s-24.82,55.32-55.32,55.32ZM1164.97,2855.51c-7.62,0-14.06,6.44-14.06,14.06s6.44,14.06,14.06,14.06h530.03c7.62,0,14.06-6.44,14.06-14.06s-6.44-14.06-14.06-14.06h-530.03Z"/>
    <path class="cls-1" d="M1532.92,3062.17h-205.89c-35.49,0-69.11-14.34-91.59-39.07l-25.15-27.67c-2.57-2.83-.33-7.07,3.72-7.07h431.92c4.06,0,6.29,4.24,3.72,7.07l-25.15,27.67c-22.48,24.73-56.09,39.07-91.59,39.07Z"/>
    <path class="cls-1" d="M1532.92,3074.38h-205.89c-39.07,0-75.75-15.7-100.62-43.07l-25.15-27.68c-4.4-4.85-5.51-11.55-2.88-17.49,2.69-6.08,8.83-10,15.64-10h431.92c6.81,0,12.95,3.93,15.64,10,2.63,5.94,1.53,12.64-2.88,17.49l-25.15,27.67c-24.88,27.37-61.55,43.07-100.62,43.07ZM1231.47,3000.57l13.01,14.32c20.26,22.29,50.35,35.07,82.55,35.07h205.89c32.2,0,62.29-12.78,82.55-35.07l13.01-14.32h-397.01Z"/>
    <path class="cls-1" d="M1429.98,462.34c-30,0-54.32-24.32-54.32-54.32V54.32c0-30,24.32-54.32,54.32-54.32s54.32,24.32,54.32,54.32v353.71c0,30-24.32,54.32-54.32,54.32Z"/>
    <path class="cls-1" d="M805.37,632.22c-13.9,0-27.8-5.3-38.41-15.91l-250.11-250.11c-21.21-21.21-21.21-55.61,0-76.82,21.21-21.21,55.61-21.21,76.82,0l250.11,250.11c21.21,21.21,21.21,55.61,0,76.82-10.61,10.61-24.51,15.91-38.41,15.91Z"/>
    <path class="cls-1" d="M408.02,1355.03H54.32c-30,0-54.32-24.32-54.32-54.32s24.32-54.32,54.32-54.32h353.71c30,0,54.32,24.32,54.32,54.32s-24.32,54.32-54.32,54.32Z"/>
    <path class="cls-1" d="M377.02,2386.73c-13.9,0-27.8-5.3-38.41-15.91-21.21-21.21-21.21-55.61,0-76.82l250.11-250.11c21.21-21.21,55.61-21.21,76.82,0,21.21,21.21,21.21,55.61,0,76.82l-250.11,250.11c-10.61,10.61-24.51,15.91-38.41,15.91Z"/>
    <path class="cls-1" d="M2464.56,2386.73c-13.9,0-27.8-5.3-38.41-15.91l-250.11-250.11c-21.21-21.21-21.21-55.61,0-76.82,21.21-21.21,55.61-21.21,76.82,0l250.11,250.11c21.21,21.21,21.21,55.61,0,76.82-10.61,10.61-24.51,15.91-38.41,15.91Z"/>
    <path class="cls-1" d="M2799.74,1411.17h-353.71c-30,0-54.32-24.32-54.32-54.32s24.32-54.32,54.32-54.32h353.71c30,0,54.32,24.32,54.32,54.32s-24.32,54.32-54.32,54.32Z"/>
    <path class="cls-1" d="M2006.55,632.22c-13.9,0-27.8-5.3-38.41-15.91-21.21-21.21-21.21-55.61,0-76.82l250.11-250.11c21.21-21.21,55.61-21.21,76.82,0,21.21,21.21,21.21,55.61,0,76.82l-250.11,250.11c-10.61,10.61-24.51,15.91-38.41,15.91Z"/>
    <path class="cls-1" d="M918.72,1355.03c-1.79,0-3.6-.09-5.42-.27-29.85-2.96-51.66-29.56-48.7-59.41.49-4.93,12.84-122.25,87.46-243.54,44.31-72.02,101.44-130.86,169.8-174.86,84.73-54.54,186.27-85.84,301.8-93.02,29.94-1.87,55.72,20.9,57.58,50.84,1.86,29.94-20.9,55.72-50.85,57.58-174.35,10.84-304.15,83.63-385.82,216.37-61.65,100.21-71.78,196.37-71.88,197.32-2.78,28.03-26.4,48.97-53.99,48.97Z"/>
  </g>
</svg>