<?xml version="1.0" encoding="UTF-8"?>
<svg id="Layer_2" data-name="Layer 2" xmlns="http://www.w3.org/2000/svg" viewBox="0 0 452.07 504.64">
  <defs>
    <style>
      .cls-1 {
        fill: #323233;
      }
    </style>
  </defs>
  <g id="Capa_1" data-name="Capa 1">
    <g>
      <path class="cls-1" d="M102.33,120.57c-18.34-6.04-38.1,3.93-44.15,22.27-6.04,18.34,3.93,38.1,22.27,44.15,3.5,1.15,7.15,1.74,10.83,1.76,5.4-.02,10.73-1.27,15.58-3.66,17.29-8.68,24.27-29.74,15.59-47.03-4.14-8.25-11.37-14.53-20.12-17.48h0ZM110.52,160.22c-1.72,5.07-5.41,9.24-10.24,11.56-10.1,5.01-22.35.88-27.36-9.22s-.88-22.35,9.22-27.36c10.04-5.03,22.26-.96,27.28,9.08,2.42,4.84,2.82,10.44,1.1,15.57v.37Z"/>
      <path class="cls-1" d="M219.87,124.3c5.39,0,10.71-1.27,15.51-3.73,17.17-8.66,24.07-29.6,15.41-46.77s-29.6-24.07-46.77-15.41c-17.17,8.66-24.07,29.6-15.41,46.77,5.95,11.79,18.05,19.2,31.26,19.14ZM200.49,82.83c1.71-5.11,5.4-9.33,10.24-11.7,2.78-1.43,5.87-2.18,9-2.19,11.23-.07,20.39,8.97,20.46,20.2s-8.97,20.39-20.2,20.46c-7.82.05-14.97-4.39-18.4-11.41-2.37-4.78-2.77-10.3-1.1-15.36Z"/>
      <path class="cls-1" d="M427.01,218.07l-66.85-21.94L271.88,18.61c-8.45-16.63-28.71-23.35-45.42-15.07L18.73,107.04c-16.68,8.4-23.47,28.67-15.21,45.42l100.86,202.17-10.02,30.57c-6.31,19.15,4.06,39.79,23.19,46.15l215.19,71.31c9.18,3.14,19.23,2.51,27.94-1.76,8.67-4.36,15.25-11.99,18.29-21.21l71.24-215.11c6.36-19.17-4.02-39.86-23.19-46.23v-.29ZM16.61,145.95c-4.67-9.52-.82-21.02,8.63-25.82L233.33,16.64c9.48-4.44,20.77-.51,25.45,8.85l81.77,163.99-128.73-42.64c-19.17-6.36-39.86,4.02-46.23,23.19l-54.64,165.08L16.61,145.95ZM436.3,259.54l-71.31,215.26c-3.79,11.51-16.2,17.77-27.71,13.98h-.01s-215.11-71.25-215.11-71.25c-5.54-1.84-10.12-5.82-12.73-11.04-2.6-5.21-3.02-11.23-1.17-16.75l10.97-33.06,60.2-181.83c1.82-5.53,5.77-10.11,10.97-12.73,3.04-1.53,6.4-2.33,9.8-2.34,2.36,0,4.7.37,6.95,1.1l145.41,48.2,69.78,23.11c5.54,1.78,10.11,5.74,12.65,10.97,2.55,5.08,3.02,10.96,1.32,16.38h0Z"/>
      <path class="cls-1" d="M261.2,240.89c6.25-18.27-3.5-38.15-21.77-44.39-18.27-6.25-38.15,3.5-44.39,21.77-6.25,18.27,3.5,38.15,21.77,44.39.17.06.34.11.51.17,3.53,1.19,7.24,1.78,10.97,1.76,14.9-.08,28.11-9.59,32.91-23.7ZM247.3,236.36c-3.55,10.65-15.07,16.41-25.72,12.85-10.65-3.55-16.41-15.07-12.85-25.72,2.78-8.32,10.57-13.92,19.34-13.9,2.16-.02,4.31.33,6.36,1.02,10.66,3.54,16.43,15.05,12.89,25.71,0,.01,0,.03-.01.04h0Z"/>
      <path class="cls-1" d="M327.54,386.3c-18.34-6.06-38.12,3.9-44.18,22.24-6.06,18.34,3.9,38.12,22.24,44.18,3.53,1.21,7.24,1.83,10.97,1.83,19.35-.07,34.98-15.81,34.91-35.16-.05-15-9.65-28.3-23.87-33.08h-.07ZM335.73,425.94c-3.51,10.71-15.04,16.54-25.75,13.03-10.71-3.51-16.54-15.04-13.03-25.75,2.76-8.41,10.62-14.08,19.47-14.04,2.16.02,4.31.36,6.36,1.02,10.67,3.55,16.46,15.06,12.95,25.75Z"/>
      <path class="cls-1" d="M305.45,335.76c6.25-18.27-3.5-38.15-21.77-44.39-18.27-6.25-38.15,3.5-44.39,21.77-6.25,18.27,3.5,38.15,21.77,44.39.17.06.34.11.51.17,3.55,1.22,7.29,1.84,11.04,1.83,5.43-.04,10.79-1.31,15.65-3.73,8.13-4.17,14.31-11.37,17.19-20.04h0ZM281.38,343.07c-4.81,2.44-10.4,2.83-15.51,1.1-5.15-1.63-9.41-5.31-11.78-10.17-5.06-9.93-1.12-22.09,8.81-27.15.08-.04.17-.09.26-.13,2.8-1.45,5.91-2.2,9.07-2.19,2.19-.02,4.36.32,6.44,1.02,5.13,1.68,9.37,5.34,11.78,10.17,5.08,9.97,1.11,22.17-8.86,27.25-.07.04-.14.07-.21.11h0Z"/>
      <path class="cls-1" d="M191.2,341.17c-18.34-6.06-38.12,3.9-44.18,22.24-6.06,18.34,3.9,38.12,22.24,44.18,3.57,1.16,7.29,1.76,11.04,1.76,5.39.05,10.73-1.15,15.58-3.51,8.32-4.12,14.62-11.43,17.48-20.26,6.18-18.29-3.63-38.13-21.92-44.32-.08-.03-.16-.05-.24-.08ZM199.46,380.74c-1.6,5.12-5.22,9.38-10.02,11.78-10.03,5.06-22.25,1.03-27.31-8.99-2.44-4.84-2.85-10.44-1.14-15.58,1.71-5.11,5.36-9.34,10.17-11.78,2.83-1.44,5.97-2.19,9.14-2.19,2.19,0,4.37.38,6.44,1.1,10.58,3.61,16.26,15.07,12.73,25.67h0Z"/>
      <path class="cls-1" d="M375.37,241.84c-18.6-5.32-38,5.45-43.32,24.05-5.02,17.55,4.28,36.02,21.38,42.44,3.55,1.14,7.25,1.73,10.97,1.76,19.35-.07,34.98-15.81,34.91-35.16-.05-15-9.65-28.3-23.87-33.08h-.07ZM383.71,281.49c-3.51,10.71-15.04,16.54-25.75,13.03-10.71-3.51-16.54-15.04-13.03-25.75,2.76-8.41,10.62-14.08,19.47-14.04,2.16.02,4.31.36,6.36,1.02,10.67,3.55,16.46,15.06,12.95,25.75Z"/>
    </g>
  </g>
</svg>