<?xml version="1.0" encoding="UTF-8"?>
<svg id="Layer_2" data-name="Layer 2" xmlns="http://www.w3.org/2000/svg" viewBox="0 0 512 512">
  <defs>
    <style>
      .cls-1 {
        fill: #323233;
      }
    </style>
  </defs>
  <g id="Capa_1" data-name="Capa 1">
    <path class="cls-1" d="M497,122h-76.58l-.42-32.1c-.05-49.58-40.41-89.9-90-89.9s-90,40.37-90,90c0,.07,0,.13,0,.19l.41,31.81h-76.41c-8.28,0-15,6.72-15,15v105H15c-8.28,0-15,6.72-15,15v210c0,24.81,20.19,45,45,45h422c24.81,0,45-20.19,45-45V137c0-8.28-6.72-15-15-15ZM330,30c33.08,0,60,26.92,60,60,0,.07,0,.13,0,.19l.41,31.81h-120l-.42-32.09c.05-33.04,26.95-59.91,60-59.91ZM332,467c0,8.27-6.73,15-15,15H45c-8.27,0-15-6.73-15-15v-195h302v195ZM482,467c0,8.27-6.73,15-15,15h-107.58c1.67-4.7,2.58-9.74,2.58-15v-210c0-8.28-6.72-15-15-15h-168v-90h61.8l.2,15.2c.11,8.22,6.8,14.8,14.99,14.8.07,0,.13,0,.2,0,8.28-.11,14.91-6.91,14.8-15.19l-.19-14.8h120l.2,15.2c.11,8.22,6.8,14.8,14.99,14.8.07,0,.13,0,.2,0,8.28-.11,14.91-6.91,14.8-15.19l-.19-14.8h61.19v315Z"/>
  </g>
</svg>