<?xml version="1.0" encoding="UTF-8"?>
<svg id="Layer_2" data-name="Layer 2" xmlns="http://www.w3.org/2000/svg" viewBox="0 0 1415.23 126.48">
  <defs>
    <style>
      .cls-1 {
        fill: #231f20;
      }
    </style>
  </defs>
  <g id="RULERS_GUIDES" data-name="RULERS/GUIDES">
    <g>
      <path class="cls-1" d="M103.7,29.58h-35.87v94.18h-31.96V29.58H0V2.72h103.7v26.86Z"/>
      <path class="cls-1" d="M145.18,47.43c4.08-4.76,8.22-8.22,12.41-10.37s9.35-3.23,15.47-3.23c9.63,0,17.25,2.63,22.86,7.9,5.61,5.27,8.42,13.06,8.42,23.38v58.65h-28.73v-51.68c0-9.86-4.65-14.79-13.94-14.79-10.99,0-16.49,6.97-16.49,20.91v45.56h-28.39V2.72h28.39v44.71Z"/>
      <path class="cls-1" d="M247.86,86.87c.11,6.46,1.96,11.47,5.52,15.04,3.57,3.57,8.42,5.35,14.54,5.35,7.25,0,12.75-3.4,16.49-10.2h27.03c-2.83,9.41-8.08,16.66-15.73,21.76-7.65,5.1-17.03,7.65-28.13,7.65-13.94,0-25.42-4.11-34.42-12.32-9.01-8.22-13.51-19.29-13.51-33.24s4.36-25.13,13.09-33.91c8.73-8.78,20-13.17,33.83-13.17s25.75,4.5,34.08,13.51c8.33,9.01,12.49,21.33,12.49,36.97v2.55h-65.28ZM279.39,57.88c-3.12-3.12-7.34-4.67-12.66-4.67-10.54,0-16.72,5.72-18.53,17.17h36.55c-.45-5.21-2.24-9.38-5.35-12.49Z"/>
      <path class="cls-1" d="M382.49,2.72h45.9l22.1,83.98L473.1,2.72h44.71v121.04h-29.92l1.53-92.31-27.03,92.31h-24.31l-26.86-92.14,1.02,92.14h-29.75V2.72Z"/>
      <path class="cls-1" d="M562.69,86.87c.11,6.46,1.96,11.47,5.52,15.04,3.57,3.57,8.42,5.35,14.54,5.35,7.25,0,12.75-3.4,16.49-10.2h27.03c-2.83,9.41-8.08,16.66-15.72,21.76-7.65,5.1-17.03,7.65-28.13,7.65-13.94,0-25.42-4.11-34.42-12.32-9.01-8.22-13.51-19.29-13.51-33.24s4.36-25.13,13.09-33.91,20-13.17,33.83-13.17,25.75,4.5,34.08,13.51,12.5,21.33,12.5,36.97v2.55h-65.28ZM594.23,57.88c-3.12-3.12-7.34-4.67-12.67-4.67-10.54,0-16.72,5.72-18.53,17.17h36.55c-.45-5.21-2.24-9.38-5.36-12.49Z"/>
      <path class="cls-1" d="M695.63,54.74h-18.02v36.21c0,4.65.57,7.85,1.7,9.6,1.13,1.76,4.02,2.64,8.67,2.64,3.4,0,5.95-.11,7.65-.34v21.25c-6.69.57-12.18.85-16.49.85-11.67,0-19.66-2.1-23.97-6.29s-6.46-11.96-6.46-23.29v-40.63h-14.45v-18.7h14.45V9.18h28.9v26.86h18.02v18.7Z"/>
      <path class="cls-1" d="M771.45,60.69c-4.53-1.13-8.33-1.7-11.39-1.7-14.51,0-21.76,8.27-21.76,24.82v39.95h-28.73V36.04h27.54l-.17,14.96c3.06-5.78,6.72-10.06,10.97-12.83,4.25-2.78,9.6-4.17,16.06-4.17,2.38,0,4.87.28,7.48.85v25.84Z"/>
      <path class="cls-1" d="M853.73,46.33c8.5,8.56,12.75,19.69,12.75,33.4s-4.28,25.07-12.83,33.74-19.69,13-33.4,13-25.02-4.31-33.58-12.92c-8.56-8.61-12.83-19.83-12.83-33.66s4.33-24.88,13-33.49,19.92-12.92,33.74-12.92,24.65,4.28,33.15,12.83ZM807.24,61.45c-3,4.36-4.5,10.51-4.5,18.45s1.53,14.45,4.59,18.87c3.06,4.42,7.37,6.63,12.92,6.63s9.83-2.24,12.83-6.71c3-4.48,4.5-10.79,4.5-18.96s-1.53-14.05-4.59-18.36c-3.06-4.31-7.42-6.46-13.09-6.46s-9.66,2.18-12.67,6.54Z"/>
      <path class="cls-1" d="M1048.72,123.76h-20.23l-1.87-13.09c-5.44,6.01-10.91,10.14-16.41,12.41-5.5,2.27-12.49,3.4-20.99,3.4-17.11,0-30.88-5.67-41.31-17-10.43-11.33-15.64-26.29-15.64-44.88s5.61-34.99,16.83-46.83c11.22-11.84,26.07-17.76,44.54-17.76,14.85,0,27.06,3.8,36.63,11.39,9.58,7.59,15.16,18.42,16.75,32.47h-30.6c-3.29-11.45-11.05-17.17-23.29-17.17-6.8,0-12.44,1.84-16.92,5.52s-7.56,8.19-9.26,13.51c-1.7,5.33-2.55,11.33-2.55,18.02,0,11.22,2.41,20.29,7.22,27.2s12.55,10.37,23.21,10.37c7.37,0,12.95-1.67,16.75-5.02,3.8-3.34,6.54-8.58,8.24-15.72h-21.93v-22.78h50.83v65.96Z"/>
      <path class="cls-1" d="M1123.52,123.76c-.79-2.49-1.25-5.27-1.36-8.33-8.05,7.37-17.74,11.05-29.07,11.05-9.52,0-17.03-2.41-22.52-7.22s-8.25-11.42-8.25-19.8c0-4.19.74-7.88,2.21-11.05,1.47-3.17,3.17-5.64,5.1-7.4,1.93-1.76,4.76-3.31,8.5-4.67,3.74-1.36,6.91-2.29,9.52-2.8s6.23-1.11,10.88-1.79c10.99-1.7,17.17-2.83,18.53-3.4,3.06-1.25,4.59-3.63,4.59-7.14,0-6.23-4.48-9.35-13.43-9.35-4.65,0-8.02.74-10.11,2.21s-3.66,4.42-4.67,8.84h-27.2c1.81-19.61,15.92-29.41,42.33-29.41,14.17,0,24.93,2.66,32.3,7.99,3.29,2.38,5.53,5.16,6.71,8.33,1.19,3.17,1.79,7.71,1.79,13.6v35.19c0,11.56,1.13,19.95,3.4,25.16h-29.24ZM1116.89,84.49c-1.81.57-3.26.96-4.33,1.19-1.08.23-2.83.6-5.27,1.11s-4,.82-4.67.93c-7.14,1.47-10.71,5.04-10.71,10.71,0,3.29,1.02,5.84,3.06,7.65s4.82,2.72,8.33,2.72c5.1,0,9.44-1.5,13-4.5,3.57-3,5.36-7.22,5.36-12.67v-9.01c-1.36.68-2.95,1.3-4.76,1.87Z"/>
      <path class="cls-1" d="M1196.11,47.6c6.69-9.29,15.64-13.94,26.86-13.94,12.13,0,20.4,4.7,24.82,14.11,4.42-4.99,8.61-8.58,12.58-10.79,3.97-2.21,9.07-3.31,15.3-3.31,9.97,0,17.62,2.89,22.95,8.67,5.33,5.78,7.99,13.66,7.99,23.63v57.8h-29.07v-51c0-10.65-4.02-15.98-12.07-15.98-4.31,0-7.65,1.39-10.03,4.17-2.38,2.78-3.57,6.54-3.57,11.3v51.51h-28.9v-52.02c0-4.76-.79-8.5-2.38-11.22-1.59-2.72-4.65-4.08-9.18-4.08-4.87,0-8.44,1.62-10.71,4.84-2.27,3.23-3.4,7.45-3.4,12.67v49.81h-28.9V36.04h27.71v11.56Z"/>
      <path class="cls-1" d="M1349.96,86.87c.11,6.46,1.96,11.47,5.52,15.04,3.57,3.57,8.42,5.35,14.54,5.35,7.25,0,12.75-3.4,16.49-10.2h27.03c-2.83,9.41-8.08,16.66-15.72,21.76-7.65,5.1-17.03,7.65-28.13,7.65-13.94,0-25.42-4.11-34.42-12.32-9.01-8.22-13.51-19.29-13.51-33.24s4.36-25.13,13.09-33.91,20-13.17,33.83-13.17,25.75,4.5,34.08,13.51,12.5,21.33,12.5,36.97v2.55h-65.28ZM1381.49,57.88c-3.12-3.12-7.34-4.67-12.67-4.67-10.54,0-16.72,5.72-18.53,17.17h36.55c-.45-5.21-2.24-9.38-5.36-12.49Z"/>
    </g>
  </g>
</svg>