<?xml version="1.0" encoding="UTF-8"?>
<svg id="Layer_2" data-name="Layer 2" xmlns="http://www.w3.org/2000/svg" viewBox="0 0 1415.23 310.31">
  <defs>
    <style>
      .cls-1 {
        fill: #231f20;
      }
    </style>
  </defs>
  <g id="RULERS_GUIDES" data-name="RULERS/GUIDES">
    <g>
      <path class="cls-1" d="M103.7,29.58h-35.87v94.18h-31.96V29.58H0V2.72h103.7v26.86Z"/>
      <path class="cls-1" d="M145.18,47.43c4.08-4.76,8.22-8.22,12.41-10.37s9.35-3.23,15.47-3.23c9.63,0,17.25,2.63,22.86,7.9,5.61,5.27,8.42,13.06,8.42,23.38v58.65h-28.73v-51.68c0-9.86-4.65-14.79-13.94-14.79-10.99,0-16.49,6.97-16.49,20.91v45.56h-28.39V2.72h28.39v44.71Z"/>
      <path class="cls-1" d="M247.86,86.87c.11,6.46,1.96,11.47,5.52,15.04,3.57,3.57,8.42,5.35,14.54,5.35,7.25,0,12.75-3.4,16.49-10.2h27.03c-2.83,9.41-8.08,16.66-15.73,21.76-7.65,5.1-17.03,7.65-28.13,7.65-13.94,0-25.42-4.11-34.42-12.32-9.01-8.22-13.51-19.29-13.51-33.24s4.36-25.13,13.09-33.91c8.73-8.78,20-13.17,33.83-13.17s25.75,4.5,34.08,13.51c8.33,9.01,12.49,21.33,12.49,36.97v2.55h-65.28ZM279.39,57.88c-3.12-3.12-7.34-4.67-12.66-4.67-10.54,0-16.72,5.72-18.53,17.17h36.55c-.45-5.21-2.24-9.38-5.35-12.49Z"/>
      <path class="cls-1" d="M382.49,2.72h45.9l22.1,83.98L473.1,2.72h44.71v121.04h-29.92l1.53-92.31-27.03,92.31h-24.31l-26.86-92.14,1.02,92.14h-29.75V2.72Z"/>
      <path class="cls-1" d="M562.69,86.87c.11,6.46,1.96,11.47,5.52,15.04,3.57,3.57,8.42,5.35,14.54,5.35,7.25,0,12.75-3.4,16.49-10.2h27.03c-2.83,9.41-8.08,16.66-15.72,21.76-7.65,5.1-17.03,7.65-28.13,7.65-13.94,0-25.42-4.11-34.42-12.32-9.01-8.22-13.51-19.29-13.51-33.24s4.36-25.13,13.09-33.91,20-13.17,33.83-13.17,25.75,4.5,34.08,13.51,12.5,21.33,12.5,36.97v2.55h-65.28ZM594.23,57.88c-3.12-3.12-7.34-4.67-12.67-4.67-10.54,0-16.72,5.72-18.53,17.17h36.55c-.45-5.21-2.24-9.38-5.36-12.49Z"/>
      <path class="cls-1" d="M695.63,54.74h-18.02v36.21c0,4.65.57,7.85,1.7,9.6,1.13,1.76,4.02,2.64,8.67,2.64,3.4,0,5.95-.11,7.65-.34v21.25c-6.69.57-12.18.85-16.49.85-11.67,0-19.66-2.1-23.97-6.29s-6.46-11.96-6.46-23.29v-40.63h-14.45v-18.7h14.45V9.18h28.9v26.86h18.02v18.7Z"/>
      <path class="cls-1" d="M771.45,60.69c-4.53-1.13-8.33-1.7-11.39-1.7-14.51,0-21.76,8.27-21.76,24.82v39.95h-28.73V36.04h27.54l-.17,14.96c3.06-5.78,6.72-10.06,10.97-12.83,4.25-2.78,9.6-4.17,16.06-4.17,2.38,0,4.87.28,7.48.85v25.84Z"/>
      <path class="cls-1" d="M853.73,46.33c8.5,8.56,12.75,19.69,12.75,33.4s-4.28,25.07-12.83,33.74-19.69,13-33.4,13-25.02-4.31-33.58-12.92c-8.56-8.61-12.83-19.83-12.83-33.66s4.33-24.88,13-33.49,19.92-12.92,33.74-12.92,24.65,4.28,33.15,12.83ZM807.24,61.45c-3,4.36-4.5,10.51-4.5,18.45s1.53,14.45,4.59,18.87c3.06,4.42,7.37,6.63,12.92,6.63s9.83-2.24,12.83-6.71c3-4.48,4.5-10.79,4.5-18.96s-1.53-14.05-4.59-18.36c-3.06-4.31-7.42-6.46-13.09-6.46s-9.66,2.18-12.67,6.54Z"/>
      <path class="cls-1" d="M1048.72,123.76h-20.23l-1.87-13.09c-5.44,6.01-10.91,10.14-16.41,12.41-5.5,2.27-12.49,3.4-20.99,3.4-17.11,0-30.88-5.67-41.31-17-10.43-11.33-15.64-26.29-15.64-44.88s5.61-34.99,16.83-46.83c11.22-11.84,26.07-17.76,44.54-17.76,14.85,0,27.06,3.8,36.63,11.39,9.58,7.59,15.16,18.42,16.75,32.47h-30.6c-3.29-11.45-11.05-17.17-23.29-17.17-6.8,0-12.44,1.84-16.92,5.52s-7.56,8.19-9.26,13.51c-1.7,5.33-2.55,11.33-2.55,18.02,0,11.22,2.41,20.29,7.22,27.2s12.55,10.37,23.21,10.37c7.37,0,12.95-1.67,16.75-5.02,3.8-3.34,6.54-8.58,8.24-15.72h-21.93v-22.78h50.83v65.96Z"/>
      <path class="cls-1" d="M1123.52,123.76c-.79-2.49-1.25-5.27-1.36-8.33-8.05,7.37-17.74,11.05-29.07,11.05-9.52,0-17.03-2.41-22.52-7.22s-8.25-11.42-8.25-19.8c0-4.19.74-7.88,2.21-11.05,1.47-3.17,3.17-5.64,5.1-7.4,1.93-1.76,4.76-3.31,8.5-4.67,3.74-1.36,6.91-2.29,9.52-2.8s6.23-1.11,10.88-1.79c10.99-1.7,17.17-2.83,18.53-3.4,3.06-1.25,4.59-3.63,4.59-7.14,0-6.23-4.48-9.35-13.43-9.35-4.65,0-8.02.74-10.11,2.21s-3.66,4.42-4.67,8.84h-27.2c1.81-19.61,15.92-29.41,42.33-29.41,14.17,0,24.93,2.66,32.3,7.99,3.29,2.38,5.53,5.16,6.71,8.33,1.19,3.17,1.79,7.71,1.79,13.6v35.19c0,11.56,1.13,19.95,3.4,25.16h-29.24ZM1116.89,84.49c-1.81.57-3.26.96-4.33,1.19-1.08.23-2.83.6-5.27,1.11s-4,.82-4.67.93c-7.14,1.47-10.71,5.04-10.71,10.71,0,3.29,1.02,5.84,3.06,7.65s4.82,2.72,8.33,2.72c5.1,0,9.44-1.5,13-4.5,3.57-3,5.36-7.22,5.36-12.67v-9.01c-1.36.68-2.95,1.3-4.76,1.87Z"/>
      <path class="cls-1" d="M1196.11,47.6c6.69-9.29,15.64-13.94,26.86-13.94,12.13,0,20.4,4.7,24.82,14.11,4.42-4.99,8.61-8.58,12.58-10.79,3.97-2.21,9.07-3.31,15.3-3.31,9.97,0,17.62,2.89,22.95,8.67,5.33,5.78,7.99,13.66,7.99,23.63v57.8h-29.07v-51c0-10.65-4.02-15.98-12.07-15.98-4.31,0-7.65,1.39-10.03,4.17-2.38,2.78-3.57,6.54-3.57,11.3v51.51h-28.9v-52.02c0-4.76-.79-8.5-2.38-11.22-1.59-2.72-4.65-4.08-9.18-4.08-4.87,0-8.44,1.62-10.71,4.84-2.27,3.23-3.4,7.45-3.4,12.67v49.81h-28.9V36.04h27.71v11.56Z"/>
      <path class="cls-1" d="M1349.96,86.87c.11,6.46,1.96,11.47,5.52,15.04,3.57,3.57,8.42,5.35,14.54,5.35,7.25,0,12.75-3.4,16.49-10.2h27.03c-2.83,9.41-8.08,16.66-15.72,21.76-7.65,5.1-17.03,7.65-28.13,7.65-13.94,0-25.42-4.11-34.42-12.32-9.01-8.22-13.51-19.29-13.51-33.24s4.36-25.13,13.09-33.91,20-13.17,33.83-13.17,25.75,4.5,34.08,13.51,12.5,21.33,12.5,36.97v2.55h-65.28ZM1381.49,57.88c-3.12-3.12-7.34-4.67-12.67-4.67-10.54,0-16.72,5.72-18.53,17.17h36.55c-.45-5.21-2.24-9.38-5.36-12.49Z"/>
      <path class="cls-1" d="M201.69,210.16h-9.15l-2.09-13.54h-20.31l-7.85,13.54h-9.79l30.67-51.27h9.58l8.93,51.27ZM178.79,181.21l-4.9,8.57h15.63l-1.58-10.51c-.96-6.58-1.49-10.56-1.58-11.95-2.02,3.98-4.54,8.62-7.56,13.9Z"/>
      <path class="cls-1" d="M259.79,207.93c-.38,1.82-.8,3.41-1.26,4.75-.46,1.34-1.16,2.82-2.12,4.43-.96,1.61-2.1,2.93-3.42,3.96-1.32,1.03-3.08,1.91-5.29,2.63-2.21.72-4.73,1.08-7.56,1.08-4.66,0-8.4-1.02-11.23-3.06-2.83-2.04-4.25-4.76-4.25-8.17v-.58h8.21c.29,4.03,2.93,6.05,7.92,6.05,1.87,0,3.47-.26,4.79-.79,1.32-.53,2.38-1.37,3.17-2.52.79-1.15,1.4-2.29,1.84-3.42s.89-2.65,1.37-4.57l.79-3.24c-2.69,3.55-6.43,5.33-11.23,5.33-4.13,0-7.49-1.37-10.08-4.1-2.59-2.74-3.89-6.31-3.89-10.73,0-3.84.71-7.46,2.12-10.87s3.61-6.26,6.59-8.57c2.98-2.3,6.43-3.46,10.37-3.46,5.71,0,9.58,2.4,11.59,7.2l1.22-6.26h7.78l-7.42,34.92ZM238.88,183.52c-2.14,3.41-3.2,7.1-3.2,11.09,0,2.83.73,5.05,2.2,6.66,1.46,1.61,3.47,2.41,6.01,2.41,3.36,0,6.19-1.58,8.5-4.75,2.3-3.17,3.46-7.08,3.46-11.74,0-2.64-.72-4.76-2.16-6.37-1.44-1.61-3.46-2.41-6.05-2.41-3.7,0-6.61,1.7-8.75,5.11Z"/>
      <path class="cls-1" d="M290.1,172.14c4.42,0,7.9.82,10.44,2.45,2.54,1.63,3.82,3.86,3.82,6.7,0,1.68-.31,3.86-.94,6.55l-2.52,11.23c-.53,2.3-.79,3.67-.79,4.1,0,.96.55,1.44,1.66,1.44.67,0,1.73-.12,3.17-.36l-1.3,5.98c-2.06.58-3.86.86-5.4.86-1.82,0-3.23-.34-4.21-1.01-.98-.67-1.55-1.9-1.69-3.67-3.36,3.31-7.54,4.97-12.53,4.97-3.5,0-6.31-.94-8.42-2.81-2.11-1.87-3.17-4.37-3.17-7.49,0-2.78.82-5.12,2.45-7.02,1.63-1.9,3.55-3.23,5.76-4,2.21-.77,4.68-1.25,7.42-1.44.1,0,.8-.04,2.12-.11,1.32-.07,2.39-.14,3.2-.22.82-.07,1.78-.2,2.88-.4s1.92-.46,2.45-.79c1.3-.77,1.94-2.23,1.94-4.39,0-3.07-2.23-4.61-6.7-4.61-4.94,0-7.92,2.04-8.93,6.12h-7.78c1.54-8.07,7.22-12.1,17.07-12.1ZM292.44,192.81c-1.08.29-1.99.48-2.74.58s-1.84.22-3.28.36l-2.09.14c-5.23.48-7.85,2.62-7.85,6.41,0,1.68.56,2.99,1.69,3.92,1.13.94,2.7,1.4,4.72,1.4,2.88,0,5.17-.76,6.88-2.27,1.7-1.51,2.82-3.3,3.35-5.36l1.66-6.19c-.48.38-1.26.72-2.34,1.01Z"/>
      <path class="cls-1" d="M322.72,178.55c1.58-1.97,3.52-3.55,5.8-4.75s4.67-1.8,7.16-1.8c5.28,0,8.4,2.23,9.36,6.7,3.74-4.37,8.11-6.55,13.11-6.55,3.02,0,5.52.8,7.49,2.41,1.97,1.61,2.95,3.66,2.95,6.16,0,1.68-.36,4.22-1.08,7.63l-4.61,21.82h-8.21l4.46-21.46c.53-2.45.79-4.27.79-5.47,0-1.34-.46-2.4-1.37-3.17-.91-.77-2.16-1.15-3.74-1.15-2.45,0-4.66.89-6.62,2.66-1.97,1.78-3.26,4.13-3.89,7.06l-4.61,21.53h-8.21l4.54-21.46c.58-2.69.86-4.58.86-5.69,0-1.3-.43-2.33-1.3-3.1-.86-.77-2.02-1.15-3.46-1.15-2.59,0-4.92.95-6.98,2.84-2.06,1.9-3.41,4.29-4.03,7.17l-4.54,21.39h-8.28l7.92-37.16h7.78l-1.3,5.54Z"/>
      <path class="cls-1" d="M401.38,208.11c-3.24,2.18-7.09,3.28-11.56,3.28-5.09,0-9.06-1.45-11.92-4.36-2.86-2.9-4.28-6.9-4.28-11.99,0-6.58,1.97-12.06,5.9-16.45,3.94-4.39,8.83-6.59,14.69-6.59,4.85,0,8.67,1.42,11.45,4.25s4.18,6.72,4.18,11.67c0,1.63-.17,3.58-.5,5.83h-27.65c-.1,1.34-.14,2.06-.14,2.16,0,2.93.79,5.22,2.38,6.88s3.74,2.48,6.48,2.48c4.46,0,7.54-2.21,9.22-6.62h8.14c-1.01,4.13-3.13,7.29-6.37,9.47ZM402.06,188.12v-1.01c0-2.93-.7-5.16-2.09-6.7-1.39-1.54-3.41-2.3-6.05-2.3s-5.1.88-7.09,2.63c-1.99,1.75-3.4,4.21-4.21,7.38h19.44Z"/>
      <path class="cls-1" d="M465.89,204.4c-3.82,4.61-8.92,6.91-15.3,6.91-5.23,0-9.29-1.42-12.17-4.25-2.88-2.83-4.32-6.82-4.32-11.95,0-6.67,2-12.21,6.01-16.6,4.01-4.39,9.08-6.59,15.23-6.59,5.09,0,9.07,1.37,11.95,4.1,2.88,2.74,4.32,6.65,4.32,11.74,0,6.48-1.91,12.02-5.72,16.63ZM445.91,183.08c-2.45,3.31-3.67,7.34-3.67,12.1,0,3.12.77,5.54,2.3,7.27,1.54,1.73,3.7,2.59,6.48,2.59,3.5,0,6.46-1.68,8.86-5.04,2.4-3.36,3.6-7.49,3.6-12.38,0-2.83-.74-5.12-2.23-6.88-1.49-1.75-3.6-2.63-6.34-2.63-3.55,0-6.55,1.66-9,4.97Z"/>
      <path class="cls-1" d="M498.9,178.91h-7.13l-6.62,31.25h-8.21l6.62-31.25h-6.19l1.37-5.9h6.12l1.22-5.04c.72-2.98,1.98-5.32,3.78-7.02,1.8-1.7,4.48-2.56,8.03-2.56,1.68,0,3.7.19,6.05.58l-1.3,6.26c-1.15-.24-2.18-.36-3.1-.36-1.1,0-2,.12-2.7.36s-1.26.68-1.69,1.33c-.43.65-.73,1.2-.9,1.66s-.4,1.24-.68,2.34c-.05.14-.07.24-.07.29s-.02.12-.07.22c-.05.1-.07.19-.07.29l-.43,1.66h7.27l-1.3,5.9Z"/>
      <path class="cls-1" d="M547.57,207.67c-3.07,2.38-6.91,3.56-11.52,3.56-5.09,0-9.04-1.4-11.85-4.21-2.81-2.81-4.21-6.73-4.21-11.77,0-6.43,1.92-11.92,5.76-16.45,3.84-4.54,8.95-6.8,15.34-6.8,4.51,0,8.12,1.16,10.84,3.49s4.07,5.44,4.07,9.33v.5h-7.99v-.29c0-2.11-.64-3.77-1.91-4.97-1.27-1.2-3.06-1.8-5.37-1.8-2.78,0-5.16.91-7.13,2.74-1.97,1.82-3.36,3.97-4.18,6.44-.82,2.47-1.22,5.08-1.22,7.81,0,6.48,2.83,9.72,8.5,9.72,2.16,0,4.03-.66,5.62-1.98,1.58-1.32,2.76-3.2,3.53-5.65h8.21c-1.25,4.51-3.41,7.96-6.48,10.33Z"/>
      <path class="cls-1" d="M572.05,178.33c3.6-4.18,7.92-6.26,12.96-6.26,3.26,0,5.88.88,7.85,2.63,1.97,1.75,2.95,4.07,2.95,6.95,0,1.49-.29,3.55-.86,6.19l-4.68,22.32h-8.28l4.54-21.31c.43-2.16.65-3.82.65-4.97,0-3.41-1.9-5.11-5.69-5.11-3.22,0-5.83,1.15-7.85,3.46-2.02,2.3-3.38,5.16-4.1,8.57l-4.1,19.37h-8.06l10.87-51.27h8.06l-4.25,19.44Z"/>
      <path class="cls-1" d="M620.94,172.14c4.42,0,7.9.82,10.44,2.45,2.54,1.63,3.82,3.86,3.82,6.7,0,1.68-.31,3.86-.94,6.55l-2.52,11.23c-.53,2.3-.79,3.67-.79,4.1,0,.96.55,1.44,1.66,1.44.67,0,1.73-.12,3.17-.36l-1.3,5.98c-2.06.58-3.86.86-5.4.86-1.82,0-3.23-.34-4.21-1.01s-1.55-1.9-1.69-3.67c-3.36,3.31-7.54,4.97-12.53,4.97-3.5,0-6.31-.94-8.42-2.81s-3.17-4.37-3.17-7.49c0-2.78.82-5.12,2.45-7.02,1.63-1.9,3.55-3.23,5.76-4,2.21-.77,4.68-1.25,7.42-1.44.1,0,.8-.04,2.12-.11s2.39-.14,3.2-.22c.82-.07,1.78-.2,2.88-.4,1.1-.19,1.92-.46,2.45-.79,1.3-.77,1.94-2.23,1.94-4.39,0-3.07-2.23-4.61-6.7-4.61-4.94,0-7.92,2.04-8.93,6.12h-7.78c1.54-8.07,7.22-12.1,17.07-12.1ZM623.28,192.81c-1.08.29-1.99.48-2.74.58s-1.84.22-3.28.36l-2.09.14c-5.23.48-7.85,2.62-7.85,6.41,0,1.68.56,2.99,1.69,3.92,1.13.94,2.7,1.4,4.72,1.4,2.88,0,5.17-.76,6.88-2.27,1.7-1.51,2.82-3.3,3.35-5.36l1.66-6.19c-.48.38-1.26.72-2.34,1.01Z"/>
      <path class="cls-1" d="M653.12,178.62c3.5-4.37,7.9-6.55,13.18-6.55,3.31,0,5.96.85,7.96,2.56s2.99,3.97,2.99,6.8c0,1.63-.29,3.74-.86,6.34l-4.68,22.39h-8.35l4.75-22.25c.34-1.49.5-2.93.5-4.32,0-1.54-.49-2.71-1.48-3.53s-2.36-1.22-4.14-1.22c-3.31,0-5.94,1.09-7.88,3.28-1.94,2.18-3.28,4.98-4,8.39l-4.18,19.66h-8.21l7.92-37.16h7.71l-1.22,5.62Z"/>
      <path class="cls-1" d="M710.29,207.67c-3.07,2.38-6.91,3.56-11.52,3.56-5.09,0-9.04-1.4-11.85-4.21-2.81-2.81-4.21-6.73-4.21-11.77,0-6.43,1.92-11.92,5.76-16.45,3.84-4.54,8.95-6.8,15.34-6.8,4.51,0,8.12,1.16,10.84,3.49s4.07,5.44,4.07,9.33v.5h-7.99v-.29c0-2.11-.64-3.77-1.91-4.97-1.27-1.2-3.06-1.8-5.37-1.8-2.78,0-5.16.91-7.13,2.74-1.97,1.82-3.36,3.97-4.18,6.44-.82,2.47-1.22,5.08-1.22,7.81,0,6.48,2.83,9.72,8.5,9.72,2.16,0,4.03-.66,5.62-1.98,1.58-1.32,2.76-3.2,3.53-5.65h8.21c-1.25,4.51-3.41,7.96-6.48,10.33Z"/>
      <path class="cls-1" d="M749.57,208.11c-3.24,2.18-7.09,3.28-11.56,3.28-5.09,0-9.06-1.45-11.92-4.36-2.86-2.9-4.29-6.9-4.29-11.99,0-6.58,1.97-12.06,5.91-16.45,3.94-4.39,8.83-6.59,14.69-6.59,4.85,0,8.67,1.42,11.45,4.25s4.18,6.72,4.18,11.67c0,1.63-.17,3.58-.5,5.83h-27.65c-.1,1.34-.14,2.06-.14,2.16,0,2.93.79,5.22,2.38,6.88,1.58,1.66,3.75,2.48,6.48,2.48,4.46,0,7.54-2.21,9.22-6.62h8.14c-1.01,4.13-3.13,7.29-6.37,9.47ZM750.25,188.12v-1.01c0-2.93-.7-5.16-2.09-6.7-1.39-1.54-3.41-2.3-6.05-2.3s-5.1.88-7.09,2.63c-1.99,1.75-3.4,4.21-4.21,7.38h19.44Z"/>
      <path class="cls-1" d="M802.38,172.14c4.42,0,7.9.82,10.44,2.45,2.54,1.63,3.82,3.86,3.82,6.7,0,1.68-.31,3.86-.94,6.55l-2.52,11.23c-.53,2.3-.79,3.67-.79,4.1,0,.96.55,1.44,1.66,1.44.67,0,1.73-.12,3.17-.36l-1.3,5.98c-2.06.58-3.86.86-5.4.86-1.82,0-3.23-.34-4.21-1.01s-1.55-1.9-1.69-3.67c-3.36,3.31-7.54,4.97-12.53,4.97-3.5,0-6.31-.94-8.42-2.81s-3.17-4.37-3.17-7.49c0-2.78.82-5.12,2.45-7.02,1.63-1.9,3.55-3.23,5.76-4,2.21-.77,4.68-1.25,7.42-1.44.1,0,.8-.04,2.12-.11s2.39-.14,3.2-.22c.82-.07,1.78-.2,2.88-.4,1.1-.19,1.92-.46,2.45-.79,1.3-.77,1.94-2.23,1.94-4.39,0-3.07-2.23-4.61-6.7-4.61-4.94,0-7.92,2.04-8.93,6.12h-7.78c1.54-8.07,7.22-12.1,17.07-12.1ZM804.72,192.81c-1.08.29-1.99.48-2.74.58s-1.84.22-3.28.36l-2.09.14c-5.23.48-7.85,2.62-7.85,6.41,0,1.68.56,2.99,1.69,3.92,1.13.94,2.7,1.4,4.72,1.4,2.88,0,5.17-.76,6.88-2.27,1.7-1.51,2.82-3.3,3.35-5.36l1.66-6.19c-.48.38-1.26.72-2.34,1.01Z"/>
      <path class="cls-1" d="M834.56,178.62c3.5-4.37,7.9-6.55,13.18-6.55,3.31,0,5.96.85,7.96,2.56s2.99,3.97,2.99,6.8c0,1.63-.29,3.74-.86,6.34l-4.68,22.39h-8.35l4.75-22.25c.34-1.49.5-2.93.5-4.32,0-1.54-.49-2.71-1.48-3.53s-2.36-1.22-4.14-1.22c-3.31,0-5.94,1.09-7.88,3.28-1.94,2.18-3.28,4.98-4,8.39l-4.18,19.66h-8.21l7.92-37.16h7.71l-1.22,5.62Z"/>
      <path class="cls-1" d="M896.77,210.16h-7.71l1.08-5.18c-2.59,4.13-6.62,6.19-12.1,6.19-4.46,0-7.93-1.31-10.41-3.92s-3.71-6.3-3.71-11.05c0-4.08.76-7.92,2.27-11.52,1.51-3.6,3.85-6.61,7.02-9.04,3.17-2.42,6.84-3.64,11.02-3.64,5.71,0,9.46,2.11,11.23,6.34l4.03-19.44h8.07l-10.8,51.27ZM875.85,183.41c-2.42,3.24-3.64,7.36-3.64,12.35,0,2.88.72,5.1,2.16,6.66,1.44,1.56,3.46,2.34,6.05,2.34,2.11,0,4.02-.56,5.72-1.69s3.06-2.58,4.07-4.36c1.01-1.78,1.78-3.67,2.3-5.69.53-2.02.79-4.01.79-5.98,0-2.64-.73-4.72-2.2-6.23-1.46-1.51-3.49-2.27-6.08-2.27-3.7,0-6.76,1.62-9.18,4.86Z"/>
      <path class="cls-1" d="M960.78,210.16h-7.71l1.08-5.18c-2.59,4.13-6.62,6.19-12.1,6.19-4.46,0-7.93-1.31-10.41-3.92s-3.71-6.3-3.71-11.05c0-4.08.76-7.92,2.27-11.52,1.51-3.6,3.85-6.61,7.02-9.04,3.17-2.42,6.84-3.64,11.02-3.64,5.71,0,9.46,2.11,11.23,6.34l4.03-19.44h8.07l-10.8,51.27ZM939.86,183.41c-2.42,3.24-3.64,7.36-3.64,12.35,0,2.88.72,5.1,2.16,6.66,1.44,1.56,3.46,2.34,6.05,2.34,2.11,0,4.02-.56,5.72-1.69s3.06-2.58,4.07-4.36c1.01-1.78,1.78-3.67,2.3-5.69.53-2.02.79-4.01.79-5.98,0-2.64-.73-4.72-2.2-6.23-1.46-1.51-3.49-2.27-6.08-2.27-3.7,0-6.76,1.62-9.18,4.86Z"/>
      <path class="cls-1" d="M977.91,210.16h-8.21l7.85-37.16h8.21l-7.85,37.16ZM987.06,166.74h-8.14l1.73-8.06h8.14l-1.73,8.06Z"/>
      <path class="cls-1" d="M1013.26,183.88c0-2.26-.6-3.83-1.8-4.72-1.2-.89-3-1.33-5.4-1.33-2.11,0-3.76.4-4.93,1.19s-1.76,1.88-1.76,3.28.66,2.4,1.98,3.17c1.32.77,3.49,1.66,6.52,2.66.72.19,1.27.36,1.66.5,6.29,2.16,9.43,5.54,9.43,10.15,0,4.18-1.61,7.3-4.82,9.36-3.22,2.06-7.03,3.1-11.45,3.1-4.94,0-8.77-1.07-11.48-3.2-2.71-2.14-4.07-5.15-4.07-9.04v-.72h7.78v.22c0,4.51,2.81,6.77,8.42,6.77,2.26,0,4.07-.47,5.44-1.4,1.37-.94,2.05-2.2,2.05-3.78,0-1.49-.55-2.59-1.66-3.31-1.1-.72-3.43-1.7-6.98-2.95-.14-.05-.26-.1-.36-.14-1.39-.53-2.42-.92-3.1-1.19-.67-.26-1.57-.71-2.7-1.33s-1.97-1.25-2.52-1.87-1.04-1.45-1.48-2.48c-.43-1.03-.65-2.2-.65-3.49,0-3.46,1.39-6.2,4.18-8.25,2.78-2.04,6.5-3.06,11.16-3.06s8.03.97,10.55,2.92c2.52,1.94,3.78,4.67,3.78,8.17v.79h-7.78Z"/>
      <path class="cls-1" d="M1053.08,207.67c-3.07,2.38-6.91,3.56-11.52,3.56-5.09,0-9.04-1.4-11.85-4.21-2.81-2.81-4.21-6.73-4.21-11.77,0-6.43,1.92-11.92,5.76-16.45,3.84-4.54,8.95-6.8,15.34-6.8,4.51,0,8.12,1.16,10.84,3.49s4.07,5.44,4.07,9.33v.5h-7.99v-.29c0-2.11-.64-3.77-1.91-4.97-1.27-1.2-3.06-1.8-5.37-1.8-2.78,0-5.16.91-7.13,2.74-1.97,1.82-3.36,3.97-4.18,6.44-.82,2.47-1.22,5.08-1.22,7.81,0,6.48,2.83,9.72,8.5,9.72,2.16,0,4.03-.66,5.62-1.98,1.58-1.32,2.76-3.2,3.53-5.65h8.21c-1.25,4.51-3.41,7.96-6.48,10.33Z"/>
      <path class="cls-1" d="M1096.82,204.4c-3.82,4.61-8.92,6.91-15.3,6.91-5.23,0-9.29-1.42-12.17-4.25-2.88-2.83-4.32-6.82-4.32-11.95,0-6.67,2-12.21,6.01-16.6,4.01-4.39,9.08-6.59,15.23-6.59,5.09,0,9.07,1.37,11.95,4.1,2.88,2.74,4.32,6.65,4.32,11.74,0,6.48-1.91,12.02-5.72,16.63ZM1076.84,183.08c-2.45,3.31-3.67,7.34-3.67,12.1,0,3.12.77,5.54,2.3,7.27,1.54,1.73,3.7,2.59,6.48,2.59,3.5,0,6.46-1.68,8.86-5.04,2.4-3.36,3.6-7.49,3.6-12.38,0-2.83-.74-5.12-2.23-6.88-1.49-1.75-3.6-2.63-6.34-2.63-3.55,0-6.55,1.66-9,4.97Z"/>
      <path class="cls-1" d="M1123.28,210.16h-9.14l-5.11-37.16h8.42l2.02,17.43c.38,3.74.62,7.8.72,12.17,1.82-4.32,3.43-7.83,4.82-10.51l10.01-19.08h8.71l-20.45,37.16Z"/>
      <path class="cls-1" d="M1171.05,208.11c-3.24,2.18-7.09,3.28-11.56,3.28-5.09,0-9.06-1.45-11.92-4.36-2.86-2.9-4.29-6.9-4.29-11.99,0-6.58,1.97-12.06,5.91-16.45,3.94-4.39,8.83-6.59,14.69-6.59,4.85,0,8.67,1.42,11.45,4.25s4.18,6.72,4.18,11.67c0,1.63-.17,3.58-.5,5.83h-27.65c-.1,1.34-.14,2.06-.14,2.16,0,2.93.79,5.22,2.38,6.88,1.58,1.66,3.75,2.48,6.48,2.48,4.46,0,7.54-2.21,9.22-6.62h8.14c-1.01,4.13-3.13,7.29-6.37,9.47ZM1171.74,188.12v-1.01c0-2.93-.7-5.16-2.09-6.7-1.39-1.54-3.41-2.3-6.05-2.3s-5.1.88-7.09,2.63c-1.99,1.75-3.4,4.21-4.21,7.38h19.44Z"/>
      <path class="cls-1" d="M1209.97,180.28c-1.06-.24-2.16-.36-3.31-.36-6.67,0-11.02,4.58-13.03,13.75l-3.6,16.49h-8.14l7.92-37.16h7.71l-1.66,7.42c3.36-5.57,7.68-8.35,12.96-8.35,1.06,0,2.02.07,2.88.22l-1.73,7.99Z"/>
      <path class="cls-1" d="M1225.08,214.7c-1.92,3.5-3.97,6-6.16,7.49-2.18,1.49-4.81,2.23-7.88,2.23-1.73,0-3.41-.19-5.04-.58l1.44-6.7c1.44.38,2.78.58,4.03.58.91,0,1.73-.22,2.45-.65.72-.43,1.34-1.04,1.87-1.84.53-.79.91-1.44,1.15-1.94.24-.5.5-1.14.79-1.91l1.37-3.53-6.26-34.85h8.5l2.09,14.33c.86,5.71,1.46,10.54,1.8,14.47,1.63-3.98,3.48-7.99,5.54-12.03l8.64-16.78h8.79l-23.11,41.69Z"/>
      <path class="cls-1" d="M1250.36,208.5c-.86,4.18-2.2,7.33-4,9.47-1.8,2.14-4.64,3.3-8.53,3.49l.94-4.25c1.92-.38,3.32-1.14,4.21-2.27.89-1.13,1.5-2.72,1.84-4.79h-4.54l2.02-9.72h9.72l-1.66,8.06Z"/>
      <path class="cls-1" d="M322.54,290.8c-3.82,4.61-8.92,6.91-15.3,6.91-5.23,0-9.29-1.42-12.17-4.25-2.88-2.83-4.32-6.82-4.32-11.95,0-6.67,2-12.21,6.01-16.6s9.08-6.59,15.23-6.59c5.09,0,9.07,1.37,11.95,4.1,2.88,2.74,4.32,6.65,4.32,11.74,0,6.48-1.91,12.02-5.72,16.63ZM302.56,269.48c-2.45,3.31-3.67,7.34-3.67,12.1,0,3.12.77,5.54,2.3,7.27,1.54,1.73,3.7,2.59,6.48,2.59,3.5,0,6.46-1.68,8.86-5.04,2.4-3.36,3.6-7.49,3.6-12.38,0-2.83-.74-5.12-2.23-6.88-1.49-1.75-3.6-2.63-6.34-2.63-3.55,0-6.55,1.66-9,4.97Z"/>
      <path class="cls-1" d="M345.69,265.02c3.5-4.37,7.9-6.55,13.18-6.55,3.31,0,5.96.85,7.96,2.56s2.99,3.97,2.99,6.8c0,1.63-.29,3.74-.86,6.34l-4.68,22.39h-8.35l4.75-22.25c.34-1.49.5-2.93.5-4.32,0-1.54-.49-2.71-1.48-3.53-.98-.82-2.36-1.22-4.14-1.22-3.31,0-5.94,1.09-7.88,3.28-1.94,2.18-3.28,4.98-4,8.39l-4.18,19.66h-8.21l7.92-37.16h7.7l-1.22,5.62Z"/>
      <path class="cls-1" d="M402.1,294.51c-3.24,2.18-7.09,3.28-11.56,3.28-5.09,0-9.06-1.45-11.92-4.36s-4.28-6.9-4.28-11.99c0-6.58,1.97-12.06,5.9-16.45,3.94-4.39,8.83-6.59,14.69-6.59,4.85,0,8.67,1.42,11.45,4.25s4.18,6.72,4.18,11.67c0,1.63-.17,3.58-.5,5.83h-27.65c-.1,1.34-.14,2.06-.14,2.16,0,2.93.79,5.22,2.38,6.88,1.58,1.66,3.75,2.48,6.48,2.48,4.46,0,7.54-2.21,9.22-6.62h8.14c-1.01,4.13-3.13,7.28-6.37,9.47ZM402.78,274.52v-1.01c0-2.93-.7-5.16-2.09-6.7-1.39-1.54-3.41-2.3-6.05-2.3s-5.1.88-7.09,2.63c-1.99,1.75-3.4,4.21-4.21,7.38h19.44Z"/>
      <path class="cls-1" d="M486.88,296.56h-8.57l4.9-22.39c1.73-7.97,3.53-15.17,5.4-21.6-2.88,5.71-5.59,10.85-8.14,15.41l-16.34,28.59h-7.34l-4.61-29.88c-.91-5.86-1.42-10.54-1.51-14.04-.53,4.51-1.85,11.91-3.96,22.18l-4.46,21.75h-8.64l10.95-51.27h12.38l4.03,28.08c.82,5.81,1.22,10.42,1.22,13.83,2.59-5.95,4.7-10.35,6.34-13.18l16.56-28.73h12.67l-10.87,51.27Z"/>
      <path class="cls-1" d="M526.15,294.51c-3.24,2.18-7.09,3.28-11.56,3.28-5.09,0-9.06-1.45-11.92-4.36-2.86-2.9-4.29-6.9-4.29-11.99,0-6.58,1.97-12.06,5.91-16.45,3.94-4.39,8.83-6.59,14.69-6.59,4.85,0,8.67,1.42,11.45,4.25s4.18,6.72,4.18,11.67c0,1.63-.17,3.58-.5,5.83h-27.65c-.1,1.34-.14,2.06-.14,2.16,0,2.93.79,5.22,2.38,6.88,1.58,1.66,3.75,2.48,6.48,2.48,4.46,0,7.54-2.21,9.22-6.62h8.14c-1.01,4.13-3.13,7.28-6.37,9.47ZM526.84,274.52v-1.01c0-2.93-.7-5.16-2.09-6.7-1.39-1.54-3.41-2.3-6.05-2.3s-5.1.88-7.09,2.63c-1.99,1.75-3.4,4.21-4.21,7.38h19.44Z"/>
      <path class="cls-1" d="M560.89,265.38h-7.27l-3.96,18.29c-.48,2.06-.72,3.48-.72,4.25,0,1.63,1.2,2.45,3.6,2.45,1.1,0,2.4-.1,3.89-.29l-1.37,6.41c-1.73.29-3.55.43-5.47.43-6.1,0-9.14-2.26-9.14-6.77,0-1.2.34-3.26,1.01-6.19l3.96-18.58h-6.34l1.3-5.98h6.34l2.45-11.09h8.14l-2.38,11.09h7.34l-1.37,5.98Z"/>
      <path class="cls-1" d="M589.05,266.68c-1.06-.24-2.16-.36-3.31-.36-6.67,0-11.02,4.58-13.03,13.75l-3.6,16.49h-8.14l7.92-37.16h7.71l-1.66,7.42c3.36-5.57,7.68-8.35,12.96-8.35,1.06,0,2.02.07,2.88.22l-1.73,7.99Z"/>
      <path class="cls-1" d="M621.27,290.8c-3.82,4.61-8.92,6.91-15.3,6.91-5.23,0-9.29-1.42-12.17-4.25-2.88-2.83-4.32-6.82-4.32-11.95,0-6.67,2-12.21,6.01-16.6,4.01-4.39,9.08-6.59,15.23-6.59,5.09,0,9.07,1.37,11.95,4.1,2.88,2.74,4.32,6.65,4.32,11.74,0,6.48-1.91,12.02-5.72,16.63ZM601.28,269.48c-2.45,3.31-3.67,7.34-3.67,12.1,0,3.12.77,5.54,2.3,7.27,1.54,1.73,3.7,2.59,6.48,2.59,3.5,0,6.46-1.68,8.86-5.04,2.4-3.36,3.6-7.49,3.6-12.38,0-2.83-.74-5.12-2.23-6.88-1.49-1.75-3.6-2.63-6.34-2.63-3.55,0-6.55,1.66-9,4.97Z"/>
      <path class="cls-1" d="M676.45,270.28c0-2.26-.6-3.83-1.8-4.72-1.2-.89-3-1.33-5.4-1.33-2.11,0-3.76.4-4.93,1.19s-1.76,1.88-1.76,3.28.66,2.4,1.98,3.17c1.32.77,3.49,1.66,6.52,2.66.72.19,1.27.36,1.66.5,6.29,2.16,9.43,5.54,9.43,10.15,0,4.18-1.61,7.3-4.82,9.36-3.22,2.06-7.03,3.1-11.45,3.1-4.94,0-8.77-1.07-11.48-3.2-2.71-2.14-4.07-5.15-4.07-9.04v-.72h7.78v.22c0,4.51,2.81,6.77,8.42,6.77,2.26,0,4.07-.47,5.44-1.4,1.37-.94,2.05-2.2,2.05-3.78,0-1.49-.55-2.59-1.66-3.31-1.1-.72-3.43-1.7-6.98-2.95-.14-.05-.26-.1-.36-.14-1.39-.53-2.42-.92-3.1-1.19-.67-.26-1.57-.71-2.7-1.33s-1.97-1.25-2.52-1.87-1.04-1.45-1.48-2.48c-.43-1.03-.65-2.2-.65-3.49,0-3.46,1.39-6.2,4.18-8.25,2.78-2.04,6.5-3.06,11.16-3.06s8.03.97,10.55,2.92c2.52,1.94,3.78,4.67,3.78,8.17v.79h-7.78Z"/>
      <path class="cls-1" d="M710.22,265.38h-7.27l-3.96,18.29c-.48,2.06-.72,3.48-.72,4.25,0,1.63,1.2,2.45,3.6,2.45,1.1,0,2.4-.1,3.89-.29l-1.37,6.41c-1.73.29-3.55.43-5.47.43-6.1,0-9.14-2.26-9.14-6.77,0-1.2.34-3.26,1.01-6.19l3.96-18.58h-6.34l1.3-5.98h6.34l2.45-11.09h8.14l-2.38,11.09h7.34l-1.37,5.98Z"/>
      <path class="cls-1" d="M743.95,290.8c-3.82,4.61-8.92,6.91-15.3,6.91-5.23,0-9.29-1.42-12.17-4.25-2.88-2.83-4.32-6.82-4.32-11.95,0-6.67,2-12.21,6.01-16.6,4.01-4.39,9.08-6.59,15.23-6.59,5.09,0,9.07,1.37,11.95,4.1,2.88,2.74,4.32,6.65,4.32,11.74,0,6.48-1.91,12.02-5.72,16.63ZM723.97,269.48c-2.45,3.31-3.67,7.34-3.67,12.1,0,3.12.77,5.54,2.3,7.27,1.54,1.73,3.7,2.59,6.48,2.59,3.5,0,6.46-1.68,8.86-5.04,2.4-3.36,3.6-7.49,3.6-12.38,0-2.83-.74-5.12-2.23-6.88-1.49-1.75-3.6-2.63-6.34-2.63-3.55,0-6.55,1.66-9,4.97Z"/>
      <path class="cls-1" d="M767.31,264.3c3.17-3.89,7.2-5.83,12.1-5.83,4.32,0,7.73,1.42,10.22,4.25,2.5,2.83,3.75,6.67,3.75,11.52,0,3.98-.71,7.71-2.12,11.16-1.42,3.46-3.64,6.35-6.66,8.68s-6.58,3.49-10.66,3.49c-6,0-9.94-2.26-11.81-6.77l-4.1,19.51h-8.14l10.8-50.91h7.71l-1.08,4.9ZM769.55,267.83c-1.97,1.92-3.35,4.15-4.14,6.7-.79,2.54-1.19,5.14-1.19,7.78s.78,4.91,2.34,6.52c1.56,1.61,3.68,2.41,6.37,2.41,3.46,0,6.36-1.61,8.71-4.83,2.35-3.22,3.53-7.18,3.53-11.88,0-6.38-2.86-9.58-8.57-9.58-2.74,0-5.09.96-7.06,2.88Z"/>
      <path class="cls-1" d="M838.95,258.54c4.42,0,7.9.82,10.44,2.45,2.54,1.63,3.82,3.86,3.82,6.7,0,1.68-.31,3.86-.94,6.55l-2.52,11.23c-.53,2.3-.79,3.67-.79,4.1,0,.96.55,1.44,1.66,1.44.67,0,1.73-.12,3.17-.36l-1.3,5.98c-2.06.58-3.86.86-5.4.86-1.82,0-3.23-.34-4.21-1.01s-1.55-1.9-1.69-3.67c-3.36,3.31-7.54,4.97-12.53,4.97-3.5,0-6.31-.94-8.42-2.81s-3.17-4.37-3.17-7.49c0-2.78.82-5.12,2.45-7.02,1.63-1.9,3.55-3.23,5.76-4,2.21-.77,4.68-1.25,7.42-1.44.1,0,.8-.04,2.12-.11s2.39-.14,3.2-.22c.82-.07,1.78-.2,2.88-.4,1.1-.19,1.92-.46,2.45-.79,1.3-.77,1.94-2.23,1.94-4.39,0-3.07-2.23-4.61-6.7-4.61-4.94,0-7.92,2.04-8.93,6.12h-7.78c1.54-8.07,7.22-12.1,17.07-12.1ZM841.29,279.21c-1.08.29-1.99.48-2.74.58s-1.84.22-3.28.36l-2.09.14c-5.23.48-7.85,2.62-7.85,6.41,0,1.68.56,2.99,1.69,3.92,1.13.94,2.7,1.4,4.72,1.4,2.88,0,5.17-.76,6.88-2.27,1.7-1.51,2.82-3.3,3.35-5.36l1.66-6.19c-.48.38-1.26.72-2.34,1.01Z"/>
      <path class="cls-1" d="M880.93,265.38h-7.27l-3.96,18.29c-.48,2.06-.72,3.48-.72,4.25,0,1.63,1.2,2.45,3.6,2.45,1.1,0,2.4-.1,3.89-.29l-1.37,6.41c-1.73.29-3.55.43-5.47.43-6.1,0-9.14-2.26-9.14-6.77,0-1.2.34-3.26,1.01-6.19l3.96-18.58h-6.34l1.3-5.98h6.34l2.45-11.09h8.14l-2.38,11.09h7.34l-1.37,5.98Z"/>
      <path class="cls-1" d="M922.98,258.54c4.42,0,7.9.82,10.44,2.45,2.54,1.63,3.82,3.86,3.82,6.7,0,1.68-.31,3.86-.94,6.55l-2.52,11.23c-.53,2.3-.79,3.67-.79,4.1,0,.96.55,1.44,1.66,1.44.67,0,1.73-.12,3.17-.36l-1.3,5.98c-2.06.58-3.86.86-5.4.86-1.82,0-3.23-.34-4.21-1.01s-1.55-1.9-1.69-3.67c-3.36,3.31-7.54,4.97-12.53,4.97-3.5,0-6.31-.94-8.42-2.81s-3.17-4.37-3.17-7.49c0-2.78.82-5.12,2.45-7.02,1.63-1.9,3.55-3.23,5.76-4,2.21-.77,4.68-1.25,7.42-1.44.1,0,.8-.04,2.12-.11s2.39-.14,3.2-.22c.82-.07,1.78-.2,2.88-.4,1.1-.19,1.92-.46,2.45-.79,1.3-.77,1.94-2.23,1.94-4.39,0-3.07-2.23-4.61-6.7-4.61-4.94,0-7.92,2.04-8.93,6.12h-7.78c1.54-8.07,7.22-12.1,17.07-12.1ZM925.32,279.21c-1.08.29-1.99.48-2.74.58s-1.84.22-3.28.36l-2.09.14c-5.23.48-7.85,2.62-7.85,6.41,0,1.68.56,2.99,1.69,3.92,1.13.94,2.7,1.4,4.72,1.4,2.88,0,5.17-.76,6.88-2.27,1.7-1.51,2.82-3.3,3.35-5.36l1.66-6.19c-.48.38-1.26.72-2.34,1.01Z"/>
      <path class="cls-1" d="M984.97,265.38h-7.27l-3.96,18.29c-.48,2.06-.72,3.48-.72,4.25,0,1.63,1.2,2.45,3.6,2.45,1.1,0,2.4-.1,3.89-.29l-1.37,6.41c-1.73.29-3.55.43-5.47.43-6.1,0-9.14-2.26-9.14-6.77,0-1.2.34-3.26,1.01-6.19l3.96-18.58h-6.34l1.3-5.98h6.34l2.45-11.09h8.14l-2.38,11.09h7.34l-1.37,5.98Z"/>
      <path class="cls-1" d="M993.18,296.56h-8.21l7.85-37.16h8.21l-7.85,37.16ZM1002.32,253.14h-8.14l1.73-8.06h8.14l-1.73,8.06Z"/>
      <path class="cls-1" d="M1016.94,264.95c1.58-1.97,3.52-3.55,5.8-4.75s4.67-1.8,7.16-1.8c5.28,0,8.4,2.23,9.36,6.7,3.74-4.37,8.11-6.55,13.1-6.55,3.02,0,5.52.8,7.49,2.41,1.97,1.61,2.95,3.66,2.95,6.16,0,1.68-.36,4.22-1.08,7.63l-4.61,21.82h-8.21l4.46-21.46c.53-2.45.79-4.27.79-5.47,0-1.34-.46-2.4-1.37-3.17-.91-.77-2.16-1.15-3.74-1.15-2.45,0-4.66.89-6.62,2.66-1.97,1.78-3.26,4.13-3.89,7.06l-4.61,21.53h-8.21l4.54-21.46c.58-2.69.86-4.58.86-5.69,0-1.3-.43-2.33-1.3-3.1-.86-.77-2.02-1.15-3.46-1.15-2.59,0-4.92.95-6.98,2.84-2.06,1.9-3.41,4.29-4.03,7.17l-4.54,21.39h-8.28l7.92-37.16h7.78l-1.3,5.54Z"/>
      <path class="cls-1" d="M1095.6,294.51c-3.24,2.18-7.09,3.28-11.56,3.28-5.09,0-9.06-1.45-11.92-4.36-2.86-2.9-4.29-6.9-4.29-11.99,0-6.58,1.97-12.06,5.91-16.45,3.94-4.39,8.83-6.59,14.69-6.59,4.85,0,8.67,1.42,11.45,4.25s4.18,6.72,4.18,11.67c0,1.63-.17,3.58-.5,5.83h-27.65c-.1,1.34-.14,2.06-.14,2.16,0,2.93.79,5.22,2.38,6.88,1.58,1.66,3.75,2.48,6.48,2.48,4.46,0,7.54-2.21,9.22-6.62h8.14c-1.01,4.13-3.13,7.28-6.37,9.47ZM1096.28,274.52v-1.01c0-2.93-.7-5.16-2.09-6.7-1.39-1.54-3.41-2.3-6.05-2.3s-5.1.88-7.09,2.63c-1.99,1.75-3.4,4.21-4.21,7.38h19.44Z"/>
      <path class="cls-1" d="M1117.02,296.56h-10.01l2.09-9.72h10.01l-2.09,9.72Z"/>
    </g>
  </g>
</svg>