<?xml version="1.0" encoding="UTF-8"?>
<svg id="Layer_2" data-name="Layer 2" xmlns="http://www.w3.org/2000/svg" viewBox="0 0 599.4 53.57">
  <g id="Layer_1-2" data-name="Layer 1">
    <g>
      <path d="M43.92,12.53h-15.19v39.89h-13.54V12.53H0V1.15h43.92v11.38Z"/>
      <path d="M61.49,20.09c1.73-2.02,3.48-3.48,5.26-4.39,1.78-.91,3.96-1.37,6.55-1.37,4.08,0,7.31,1.12,9.69,3.35,2.38,2.23,3.56,5.53,3.56,9.9v24.84h-12.17v-21.89c0-4.18-1.97-6.26-5.9-6.26-4.66,0-6.98,2.95-6.98,8.86v19.3h-12.02V1.15h12.02v18.94Z"/>
      <path d="M104.98,36.79c.05,2.74.83,4.86,2.34,6.37s3.56,2.27,6.16,2.27c3.07,0,5.4-1.44,6.98-4.32h11.45c-1.2,3.98-3.42,7.06-6.66,9.22s-7.21,3.24-11.92,3.24c-5.9,0-10.77-1.74-14.58-5.22-3.82-3.48-5.72-8.17-5.72-14.08s1.85-10.65,5.54-14.37,8.47-5.58,14.33-5.58,10.91,1.91,14.44,5.72,5.29,9.04,5.29,15.66v1.08h-27.65ZM118.33,24.52c-1.32-1.32-3.11-1.98-5.36-1.98-4.46,0-7.08,2.42-7.85,7.27h15.48c-.19-2.21-.95-3.97-2.27-5.29Z"/>
      <path d="M162,1.15h19.44l9.36,35.57L200.38,1.15h18.94v51.27h-12.67l.65-39.1-11.45,39.1h-10.3l-11.38-39.03.43,39.03h-12.6V1.15Z"/>
      <path d="M238.32,36.79c.05,2.74.83,4.86,2.34,6.37s3.56,2.27,6.16,2.27c3.07,0,5.4-1.44,6.98-4.32h11.45c-1.2,3.98-3.42,7.06-6.66,9.22s-7.21,3.24-11.92,3.24c-5.9,0-10.77-1.74-14.58-5.22-3.82-3.48-5.72-8.17-5.72-14.08s1.85-10.65,5.54-14.37,8.47-5.58,14.33-5.58,10.91,1.91,14.44,5.72,5.29,9.04,5.29,15.66v1.08h-27.65ZM251.68,24.52c-1.32-1.32-3.11-1.98-5.36-1.98-4.46,0-7.08,2.42-7.85,7.27h15.48c-.19-2.21-.95-3.97-2.27-5.29Z"/>
      <path d="M294.62,23.19h-7.63v15.34c0,1.97.24,3.32.72,4.07.48.74,1.7,1.12,3.67,1.12,1.44,0,2.52-.05,3.24-.14v9c-2.83.24-5.16.36-6.98.36-4.94,0-8.33-.89-10.15-2.66s-2.74-5.06-2.74-9.86v-17.21h-6.12v-7.92h6.12V3.89h12.24v11.38h7.63v7.92Z"/>
      <path d="M326.73,25.71c-1.92-.48-3.53-.72-4.82-.72-6.14,0-9.22,3.5-9.22,10.51v16.92h-12.17V15.27h11.66l-.07,6.34c1.3-2.45,2.84-4.26,4.64-5.44,1.8-1.18,4.07-1.76,6.8-1.76,1.01,0,2.06.12,3.17.36v10.94Z"/>
      <path d="M361.58,19.62c3.6,3.62,5.4,8.34,5.4,14.15s-1.81,10.62-5.44,14.29c-3.62,3.67-8.34,5.51-14.15,5.51s-10.6-1.82-14.22-5.47c-3.62-3.65-5.44-8.4-5.44-14.26s1.84-10.54,5.51-14.19,8.44-5.47,14.29-5.47,10.44,1.81,14.04,5.44ZM341.89,26.03c-1.27,1.85-1.91,4.45-1.91,7.81s.65,6.12,1.94,7.99c1.3,1.87,3.12,2.81,5.47,2.81s4.16-.95,5.44-2.84c1.27-1.9,1.91-4.57,1.91-8.03s-.65-5.95-1.94-7.78c-1.3-1.82-3.14-2.74-5.54-2.74s-4.09.92-5.36,2.77Z"/>
      <path d="M444.17,52.42h-8.57l-.79-5.54c-2.3,2.54-4.62,4.3-6.95,5.26s-5.29,1.44-8.89,1.44c-7.25,0-13.08-2.4-17.5-7.2-4.42-4.8-6.62-11.14-6.62-19.01s2.38-14.82,7.13-19.84c4.75-5.02,11.04-7.52,18.87-7.52,6.29,0,11.46,1.61,15.52,4.82,4.06,3.22,6.42,7.8,7.09,13.75h-12.96c-1.39-4.85-4.68-7.27-9.86-7.27-2.88,0-5.27.78-7.16,2.34s-3.2,3.47-3.92,5.72-1.08,4.8-1.08,7.63c0,4.75,1.02,8.59,3.06,11.52,2.04,2.93,5.32,4.39,9.83,4.39,3.12,0,5.48-.71,7.09-2.12,1.61-1.42,2.77-3.64,3.49-6.66h-9.29v-9.65h21.53v27.94Z"/>
      <path d="M475.84,52.42c-.34-1.06-.53-2.23-.58-3.53-3.41,3.12-7.51,4.68-12.31,4.68-4.03,0-7.21-1.02-9.54-3.06-2.33-2.04-3.49-4.84-3.49-8.39,0-1.78.31-3.34.94-4.68.62-1.34,1.34-2.39,2.16-3.13.82-.74,2.02-1.4,3.6-1.98s2.93-.97,4.03-1.19c1.1-.22,2.64-.47,4.61-.76,4.66-.72,7.27-1.2,7.85-1.44,1.3-.53,1.94-1.54,1.94-3.02,0-2.64-1.9-3.96-5.69-3.96-1.97,0-3.4.31-4.28.94-.89.62-1.55,1.87-1.98,3.74h-11.52c.77-8.3,6.74-12.46,17.93-12.46,6,0,10.56,1.13,13.68,3.38,1.39,1.01,2.34,2.18,2.84,3.53.5,1.34.76,3.26.76,5.76v14.91c0,4.9.48,8.45,1.44,10.66h-12.39ZM473.04,35.79c-.77.24-1.38.41-1.84.5-.46.1-1.2.25-2.23.47-1.03.22-1.69.35-1.98.4-3.02.62-4.54,2.14-4.54,4.54,0,1.39.43,2.47,1.3,3.24.86.77,2.04,1.15,3.53,1.15,2.16,0,4-.64,5.51-1.91,1.51-1.27,2.27-3.06,2.27-5.36v-3.82c-.58.29-1.25.55-2.02.79Z"/>
      <path d="M506.59,20.16c2.83-3.94,6.62-5.9,11.38-5.9,5.14,0,8.64,1.99,10.51,5.98,1.87-2.11,3.65-3.64,5.33-4.57s3.84-1.4,6.48-1.4c4.22,0,7.46,1.22,9.72,3.67,2.26,2.45,3.38,5.78,3.38,10.01v24.48h-12.31v-21.6c0-4.51-1.7-6.77-5.11-6.77-1.82,0-3.24.59-4.25,1.76-1.01,1.18-1.51,2.77-1.51,4.79v21.82h-12.24v-22.03c0-2.02-.34-3.6-1.01-4.75-.67-1.15-1.97-1.73-3.89-1.73-2.06,0-3.58.68-4.54,2.05s-1.44,3.16-1.44,5.36v21.1h-12.24V15.27h11.74v4.9Z"/>
      <path d="M571.75,36.79c.05,2.74.83,4.86,2.34,6.37s3.56,2.27,6.16,2.27c3.07,0,5.4-1.44,6.98-4.32h11.45c-1.2,3.98-3.42,7.06-6.66,9.22s-7.21,3.24-11.92,3.24c-5.9,0-10.77-1.74-14.58-5.22-3.82-3.48-5.72-8.17-5.72-14.08s1.85-10.65,5.54-14.37,8.47-5.58,14.33-5.58,10.91,1.91,14.44,5.72,5.29,9.04,5.29,15.66v1.08h-27.65ZM585.1,24.52c-1.32-1.32-3.11-1.98-5.36-1.98-4.46,0-7.08,2.42-7.85,7.27h15.48c-.19-2.21-.95-3.97-2.27-5.29Z"/>
    </g>
  </g>
</svg>